<svg width="701" height="201" viewBox="0 0 701 201" fill="none" xmlns="http://www.w3.org/2000/svg">
<path d="M637.816 50.6973C645.424 50.6973 652.131 52.5319 657.937 56.2021C663.742 59.8724 668.08 64.8445 670.949 71.1172H671.449V52.3984H700.277V158.202C700.277 170.948 695.373 181.124 685.563 188.731C675.821 196.339 662.874 200.143 646.726 200.143C632.779 200.143 621.301 197.073 612.292 190.934C603.35 184.861 598.278 176.987 597.077 167.311H625.705C626.84 171.047 629.375 174.05 633.312 176.319C637.316 178.655 642.055 179.823 647.526 179.823C654.933 179.823 660.705 177.921 664.843 174.117C668.98 170.38 671.049 165.342 671.049 159.003V140.185H670.448C667.912 145.99 663.675 150.662 657.736 154.198C651.797 157.668 644.99 159.403 637.316 159.403C624.104 159.403 613.526 154.598 605.585 144.989C597.711 135.38 593.773 122.267 593.773 105.65C593.773 88.6338 597.711 75.2207 605.585 65.4111C613.459 55.6016 624.203 50.6973 637.816 50.6973ZM189.279 50.0967C204.828 50.0968 217.206 54.9682 226.415 64.7109C235.624 74.4538 240.229 87.4995 240.229 103.849V112.758H166.257V114.56C166.257 122.234 168.492 128.473 172.963 133.277C177.501 138.015 183.474 140.385 190.881 140.385C196.219 140.385 200.824 139.184 204.694 136.781C208.565 134.312 211.167 131.008 212.502 126.871H239.328C237.727 137.415 232.455 145.924 223.513 152.396C214.637 158.803 203.593 162.006 190.38 162.006C173.897 162.006 160.951 157.068 151.542 147.191C142.2 137.315 137.528 123.768 137.528 106.552C137.528 89.4018 142.2 75.7217 151.542 65.5117C160.884 55.235 173.464 50.0967 189.279 50.0967ZM533.314 50.0967C547.061 50.0967 558.072 53.3665 566.347 59.9062C574.621 66.4459 578.759 75.1212 578.759 85.9316V159.703H550.531V143.287H549.931C546.994 148.893 542.523 153.331 536.518 156.601C530.512 159.804 524.072 161.405 517.199 161.405C506.856 161.405 498.28 158.368 491.474 152.296C484.667 146.223 481.264 138.416 481.264 128.873C481.264 119.13 484.867 111.49 492.074 105.951C499.281 100.412 509.592 97.2422 523.005 96.4414L550.031 94.8398V87.7334C550.031 82.7954 548.396 78.9248 545.126 76.1221C541.923 73.3194 537.552 71.9181 532.014 71.918C526.675 71.918 522.304 73.1191 518.9 75.5215C515.564 77.9238 513.529 81.16 512.795 85.2305H486.068C486.602 74.6868 491.107 66.2119 499.582 59.8057C508.057 53.3328 519.301 50.0967 533.314 50.0967ZM55.5488 15.2617C57.0558 15.2617 58.5395 15.2927 60 15.3525V40.7295C57.4523 40.3684 54.7675 40.1865 51.9453 40.1865H30.624V134.679H51.9453C65.4915 134.679 75.8015 130.642 82.875 122.567C90.0153 114.426 93.5859 102.581 93.5859 87.0322C93.5859 74.248 90.9952 63.9818 85.8164 56.2324L115.056 45.7363C121.296 56.7965 124.416 70.5289 124.416 86.9326C124.416 109.821 118.343 127.672 106.198 140.484C94.1199 153.297 77.2364 159.703 55.5488 159.703H0.394531V15.2617H55.5488ZM285.272 159.703H256.044V15.2617H285.272V159.703ZM334.721 159.703H305.492V52.3984H334.721V159.703ZM419.604 15.2617C433.15 15.2617 443.894 18.4987 451.835 24.9717C459.776 31.4447 463.747 40.2204 463.747 51.2979C463.747 59.1719 461.144 66.0786 455.939 72.0176C450.801 77.9567 444.361 81.4935 436.62 82.6279V83.4287C446.496 84.1628 454.638 87.8001 461.044 94.3398C467.45 100.88 470.653 108.887 470.653 118.363C470.653 131.109 466.182 141.186 457.24 148.593C448.298 156 436.12 159.703 420.705 159.703H356.742V15.2617H419.604ZM527.409 113.959C521.937 114.359 517.699 115.727 514.696 118.062C511.76 120.398 510.292 123.468 510.292 127.271C510.292 131.275 511.794 134.446 514.797 136.781C517.8 139.117 521.804 140.284 526.809 140.284C533.281 140.284 538.754 138.416 543.225 134.679C547.762 130.875 550.031 126.104 550.031 120.365V112.558L527.409 113.959ZM386.972 137.182H412.997C421.739 137.182 428.379 135.38 432.917 131.776C437.521 128.106 439.823 122.834 439.823 115.961C439.823 109.221 437.454 104.083 432.717 100.546C428.046 97.0092 421.239 95.2403 412.297 95.2402H386.972V137.182ZM647.226 74.1201C640.019 74.1201 634.28 76.9896 630.009 82.7285C625.805 88.4007 623.703 96.1079 623.703 105.851C623.703 115.593 625.805 123.201 630.009 128.673C634.213 134.145 639.952 136.881 647.226 136.881C654.566 136.881 660.372 134.145 664.643 128.673C668.98 123.134 671.149 115.527 671.149 105.851C671.149 96.1747 668.98 88.4674 664.643 82.7285C660.305 76.9896 654.499 74.1201 647.226 74.1201ZM189.579 71.7178C183.24 71.7178 177.935 73.8862 173.664 78.2236C169.46 82.5612 167.09 88.0999 166.557 94.8398H212.102C211.768 87.9666 209.532 82.3948 205.395 78.124C201.324 73.8532 196.052 71.7178 189.579 71.7178ZM386.972 75.3213H408.693C416.768 75.3212 423.007 73.6528 427.411 70.3164C431.815 66.9131 434.018 62.1413 434.018 56.002C434.018 50.1963 432.082 45.7253 428.212 42.5889C424.341 39.3857 418.869 37.7842 411.796 37.7842H386.972V75.3213Z" fill="#F3F3F3"/>
<path d="M331.217 36.1826C328.214 39.1188 324.511 40.5869 320.106 40.5869C315.702 40.5869 311.999 39.1188 308.996 36.1826C305.993 33.2464 304.491 29.6763 304.491 25.4722C304.491 21.2013 305.993 17.6312 308.996 14.7617C311.999 11.8255 315.702 10.3574 320.106 10.3574C324.511 10.3574 328.214 11.8255 331.217 14.7617C334.22 17.6312 335.722 21.2013 335.722 25.4722C335.722 29.6763 334.22 33.2464 331.217 36.1826Z" fill="#E21419"/>
<path d="M70 0C89.6235 0.804618 105.056 7.0136 116.298 18.6279C119.695 22.1375 122.614 26.0561 125.056 30.3838L95.8164 40.8799C94.886 39.4876 93.873 38.176 92.7754 36.9463C87.0925 30.5793 79.5002 26.7234 70 25.377V0Z" fill="#E21419"/>
</svg>
