<svg width="21" height="21" viewBox="0 0 21 21" fill="none" xmlns="http://www.w3.org/2000/svg">
<path d="M15.615 16.5162C15.615 16.1075 15.3184 15.7977 14.9097 15.7977H10.5657C10.7437 15.7779 10.9151 15.6988 11.0469 15.5604L15.3843 11.2164C15.5425 11.0582 15.615 10.8802 15.615 10.6824C15.615 10.2737 15.3118 9.97051 14.9097 9.97051C14.7054 9.97051 14.5208 10.0562 14.3889 10.188L12.886 11.6712L11.1787 13.5828L11.2315 12.159V4.01812C11.2315 3.57647 10.9348 3.27325 10.4998 3.27325C10.0647 3.27325 9.7681 3.57647 9.7681 4.01812V12.159L9.82083 13.5762L8.11356 11.6712L6.61063 10.188C6.47879 10.0562 6.29422 9.97051 6.08328 9.97051C5.68118 9.97051 5.38455 10.2737 5.38455 10.6824C5.38455 10.8802 5.45706 11.0582 5.61526 11.2164L9.95267 15.5604C10.0845 15.6988 10.2559 15.7779 10.4339 15.7977H6.10306C5.68777 15.7977 5.38455 16.1075 5.38455 16.5162C5.38455 16.9249 5.68777 17.2347 6.10306 17.2347H14.9097C15.3184 17.2347 15.615 16.9249 15.615 16.5162Z" fill="#DADADA"/>
</svg>
