<svg width="46" height="46" viewBox="0 0 46 46" fill="none" xmlns="http://www.w3.org/2000/svg">
<rect width="46" height="46" rx="23" fill="#1A1A1E"/>
<g clip-path="url(#clip0_7_319)">
<g clip-path="url(#clip1_7_319)">
<path d="M12.3333 35V29.3333L29.9 11.8C30.1667 11.5333 30.4667 11.3333 30.8 11.2C31.1333 11.0667 31.4667 11 31.8 11C32.1556 11 32.4944 11.0667 32.8167 11.2C33.1389 11.3333 33.4222 11.5333 33.6667 11.8L35.5333 13.6667C35.8 13.9111 36 14.1944 36.1333 14.5167C36.2667 14.8389 36.3333 15.1778 36.3333 15.5333C36.3333 15.8667 36.2667 16.2 36.1333 16.5333C36 16.8667 35.8 17.1667 35.5333 17.4333L18 35H12.3333ZM15 32.3333H16.8667L29.9667 19.2667L29.0333 18.3L28.0667 17.3667L15 30.4667V32.3333ZM29.0333 18.3L28.0667 17.3667L29.9667 19.2667L29.0333 18.3ZM25.6667 35C27.3111 35 28.8333 34.5889 30.2333 33.7667C31.6333 32.9444 32.3333 31.8 32.3333 30.3333C32.3333 29.5333 32.1222 28.8444 31.7 28.2667C31.2778 27.6889 30.7111 27.1889 30 26.7667L28.0333 28.7333C28.5444 28.9556 28.9444 29.2 29.2333 29.4667C29.5222 29.7333 29.6667 30.0222 29.6667 30.3333C29.6667 30.8444 29.2611 31.3056 28.45 31.7167C27.6389 32.1278 26.7111 32.3333 25.6667 32.3333C25.2889 32.3333 24.9722 32.4611 24.7167 32.7167C24.4611 32.9722 24.3333 33.2889 24.3333 33.6667C24.3333 34.0444 24.4611 34.3611 24.7167 34.6167C24.9722 34.8722 25.2889 35 25.6667 35ZM13.1 24.8L15.1 22.8C14.6556 22.6222 14.3056 22.4389 14.05 22.25C13.7944 22.0611 13.6667 21.8667 13.6667 21.6667C13.6667 21.4 13.8667 21.1333 14.2667 20.8667C14.6667 20.6 15.5111 20.1889 16.8 19.6333C18.7556 18.7889 20.0556 18.0222 20.7 17.3333C21.3444 16.6444 21.6667 15.8667 21.6667 15C21.6667 13.7778 21.1778 12.8056 20.2 12.0833C19.2222 11.3611 17.9333 11 16.3333 11C15.3333 11 14.4389 11.1778 13.65 11.5333C12.8611 11.8889 12.2556 12.3222 11.8333 12.8333C11.5889 13.1222 11.4889 13.4444 11.5333 13.8C11.5778 14.1556 11.7444 14.4444 12.0333 14.6667C12.3222 14.9111 12.6444 15.0111 13 14.9667C13.3556 14.9222 13.6556 14.7778 13.9 14.5333C14.2111 14.2222 14.5556 14 14.9333 13.8667C15.3111 13.7333 15.7778 13.6667 16.3333 13.6667C17.2444 13.6667 17.9167 13.8 18.35 14.0667C18.7833 14.3333 19 14.6444 19 15C19 15.3111 18.8056 15.5944 18.4167 15.85C18.0278 16.1056 17.1333 16.5556 15.7333 17.2C13.9556 17.9778 12.7222 18.6833 12.0333 19.3167C11.3444 19.95 11 20.7333 11 21.6667C11 22.3778 11.1889 22.9833 11.5667 23.4833C11.9444 23.9833 12.4556 24.4222 13.1 24.8Z" fill="white"/>
</g>
</g>
<defs>
<clipPath id="clip0_7_319">
<rect width="32" height="32" fill="white" transform="translate(7 7)"/>
</clipPath>
<clipPath id="clip1_7_319">
<rect width="32" height="32" fill="white" transform="translate(7 7)"/>
</clipPath>
</defs>
</svg>
