<svg width="47" height="46" viewBox="0 0 47 46" fill="none" xmlns="http://www.w3.org/2000/svg">
<g clip-path="url(#clip0_29_943)">
<g clip-path="url(#clip1_29_943)">
<path d="M30.1925 43.019C28.5822 43.019 27.2308 42.4697 26.1385 41.371C25.0462 40.2723 24.5 38.9178 24.5 37.3075C24.5 36.4538 24.6847 35.6552 25.054 34.9115C25.423 34.1678 25.9307 33.5255 26.577 32.9845V27.6155C26.577 26.6178 26.9302 25.7658 27.6365 25.0595C28.3428 24.3532 29.1948 24 30.1925 24C31.1898 24 32.0417 24.3532 32.748 25.0595C33.4543 25.7658 33.8075 26.6178 33.8075 27.6155V32.9845C34.4332 33.5255 34.9358 34.1678 35.3155 34.9115C35.6948 35.6552 35.8845 36.4538 35.8845 37.3075C35.8845 38.9178 35.3332 40.2723 34.2305 41.371C33.1282 42.4697 31.7822 43.019 30.1925 43.019ZM26.8845 37.3075H33.5C33.5 36.5538 33.2948 35.9365 32.8845 35.4555C32.4742 34.9748 31.987 34.5203 31.423 34.092V27.6155C31.423 27.2718 31.3038 26.9808 31.0655 26.7425C30.8268 26.5038 30.5358 26.3845 30.1925 26.3845C29.8488 26.3845 29.5577 26.5038 29.319 26.7425C29.0807 26.9808 28.9615 27.2718 28.9615 27.6155V34.092C28.3768 34.5203 27.8845 34.9748 27.4845 35.4555C27.0845 35.9365 26.8845 36.5538 26.8845 37.3075ZM36.3655 32.077V29.7115H41.5V32.077H36.3655ZM36.3655 27.327V24.9615H43.5V27.327H36.3655ZM41.0385 20.346H38.7075C37.8512 17.177 36.1243 14.5387 33.527 12.431C30.9293 10.3233 27.9203 9.2695 24.5 9.2695C20.4103 9.2695 16.9328 10.7022 14.0675 13.5675C11.2022 16.4328 9.7695 19.9103 9.7695 24C9.7695 26.8283 10.4817 29.3828 11.906 31.6635C13.3303 33.9442 15.195 35.7 17.5 36.931V30.7305H19.7695V41H9.5V38.7305H16.1465C13.5718 37.2718 11.4872 35.2418 9.8925 32.6405C8.2975 30.0392 7.5 27.159 7.5 24C7.5 21.641 7.94617 19.4308 8.8385 17.3695C9.73083 15.3078 10.9437 13.5103 12.477 11.977C14.0103 10.4437 15.8078 9.23083 17.8695 8.3385C19.9308 7.44617 22.141 7 24.5 7C28.5693 7 32.134 8.26667 35.194 10.8C38.2543 13.3333 40.2025 16.5153 41.0385 20.346Z" fill="#31A5FD"/>
</g>
</g>
<defs>
<clipPath id="clip0_29_943">
<rect width="46" height="46" fill="white" transform="translate(0.5)"/>
</clipPath>
<clipPath id="clip1_29_943">
<rect width="48" height="48" fill="white" transform="translate(0.5)"/>
</clipPath>
</defs>
</svg>
