<svg width="46" height="46" viewBox="0 0 46 46" fill="none" xmlns="http://www.w3.org/2000/svg">
<rect width="46" height="46" rx="23" fill="#1A1A1E"/>
<g clip-path="url(#clip0_7_318)">
<g clip-path="url(#clip1_7_318)">
<path d="M16.3337 37.6666C15.6003 37.6666 14.9725 37.4055 14.4503 36.8832C13.9281 36.361 13.667 35.7332 13.667 34.9999V10.9999C13.667 10.2666 13.9281 9.63881 14.4503 9.11659C14.9725 8.59436 15.6003 8.33325 16.3337 8.33325H29.6669C30.4003 8.33325 31.0281 8.59436 31.5503 9.11659C32.0725 9.63881 32.3336 10.2666 32.3336 10.9999V34.9999C32.3336 35.7332 32.0725 36.361 31.5503 36.8832C31.0281 37.4055 30.4003 37.6666 29.6669 37.6666H16.3337ZM16.3337 33.6666V34.9999H29.6669V33.6666H16.3337ZM16.3337 30.9999H29.6669V14.9999H16.3337V30.9999ZM16.3337 12.3333H29.6669V10.9999H16.3337V12.3333Z" fill="white"/>
</g>
</g>
<defs>
<clipPath id="clip0_7_318">
<rect width="32" height="32" fill="white" transform="translate(7 7)"/>
</clipPath>
<clipPath id="clip1_7_318">
<rect width="32" height="32" fill="white" transform="translate(7 7)"/>
</clipPath>
</defs>
</svg>
