<svg width="46" height="46" viewBox="0 0 46 46" fill="none" xmlns="http://www.w3.org/2000/svg">
<rect width="46" height="46" rx="23" fill="#1A1A1E"/>
<g clip-path="url(#clip0_7_321)">
<g clip-path="url(#clip1_7_321)">
<path d="M24.3333 21.6667V19H31V21.6667H24.3333ZM24.3333 16.3333V13.6667H35V16.3333H24.3333ZM17.6667 35C15.8222 35 14.25 34.35 12.95 33.05C11.65 31.75 11 30.1778 11 28.3333C11 27.2667 11.2333 26.2722 11.7 25.35C12.1667 24.4278 12.8222 23.6444 13.6667 23V15C13.6667 13.8889 14.0556 12.9444 14.8333 12.1667C15.6111 11.3889 16.5556 11 17.6667 11C18.7778 11 19.7222 11.3889 20.5 12.1667C21.2778 12.9444 21.6667 13.8889 21.6667 15V23C22.5111 23.6444 23.1667 24.4278 23.6333 25.35C24.1 26.2722 24.3333 27.2667 24.3333 28.3333C24.3333 30.1778 23.6833 31.75 22.3833 33.05C21.0833 34.35 19.5111 35 17.6667 35ZM13.6667 28.3333H21.6667C21.6667 27.6889 21.5278 27.0889 21.25 26.5333C20.9722 25.9778 20.5778 25.5111 20.0667 25.1333L19 24.3333V15C19 14.6222 18.8722 14.3056 18.6167 14.05C18.3611 13.7944 18.0444 13.6667 17.6667 13.6667C17.2889 13.6667 16.9722 13.7944 16.7167 14.05C16.4611 14.3056 16.3333 14.6222 16.3333 15V24.3333L15.2667 25.1333C14.7556 25.5111 14.3611 25.9778 14.0833 26.5333C13.8056 27.0889 13.6667 27.6889 13.6667 28.3333Z" fill="white"/>
</g>
</g>
<defs>
<clipPath id="clip0_7_321">
<rect width="32" height="32" fill="white" transform="translate(7 7)"/>
</clipPath>
<clipPath id="clip1_7_321">
<rect width="32" height="32" fill="white" transform="translate(7 7)"/>
</clipPath>
</defs>
</svg>
