<svg width="46" height="46" viewBox="0 0 46 46" fill="none" xmlns="http://www.w3.org/2000/svg">
<rect width="46" height="46" rx="23" fill="#1A1A1E"/>
<g clip-path="url(#clip0_7_322)">
<g clip-path="url(#clip1_7_322)">
<path d="M16.3335 10.9998C17.4445 10.9998 18.3887 11.389 19.1665 12.1667C19.9442 12.9445 20.3335 13.8887 20.3335 14.9998V22.9997C21.1779 23.6442 21.8326 24.4281 22.2993 25.3503C22.766 26.2725 23.0005 27.267 23.0005 28.3337C23.0004 30.178 22.3492 31.7496 21.0493 33.0495C19.7493 34.3494 18.1778 34.9997 16.3335 34.9997C14.489 34.9997 12.9167 34.3495 11.6167 33.0495C10.3169 31.7496 9.66658 30.1779 9.6665 28.3337C9.6665 27.2671 9.90009 26.2725 10.3667 25.3503C10.8334 24.4281 11.489 23.6442 12.3335 22.9997V14.9998C12.3335 13.8888 12.722 12.9445 13.4995 12.1667C14.2773 11.389 15.2224 10.9998 16.3335 10.9998ZM36.3335 16.9998L34.4341 18.8669L33.0005 17.4333V28.6003L34.4663 27.1325L36.3335 28.9997L31.6665 33.6667L27.0005 28.9997L28.8999 27.1325L30.3335 28.5661V17.3991L28.8677 18.8669L27.0005 16.9998L31.6665 12.3328L36.3335 16.9998ZM16.3335 13.6667C15.9557 13.6667 15.6379 13.794 15.3823 14.0496C15.127 14.305 14.9995 14.6222 14.9995 14.9998V24.3337L13.9331 25.1325C13.4221 25.5103 13.0273 25.9784 12.7495 26.5339C12.4719 27.0893 12.3335 27.6895 12.3335 28.3337H20.3335C20.3335 27.6894 20.1941 27.0893 19.9165 26.5339C19.6387 25.9783 19.244 25.5103 18.7329 25.1325L17.6665 24.3337V14.9998C17.6665 14.622 17.5392 14.3051 17.2837 14.0496C17.0282 13.794 16.7112 13.6668 16.3335 13.6667Z" fill="white"/>
</g>
</g>
<defs>
<clipPath id="clip0_7_322">
<rect width="32" height="32" fill="white" transform="translate(7 7)"/>
</clipPath>
<clipPath id="clip1_7_322">
<rect width="32" height="32" fill="white" transform="translate(7 7)"/>
</clipPath>
</defs>
</svg>
