<svg width="47" height="46" viewBox="0 0 47 46" fill="none" xmlns="http://www.w3.org/2000/svg">
<g clip-path="url(#clip0_29_916)">
<g clip-path="url(#clip1_29_916)">
<path d="M5.354 26.804L3.5 25.446L12.496 10.9845L18.554 18.0925L26.554 5.096L32.6115 14.1655L39.646 3L41.4305 4.327L32.6425 18.3L26.6345 9.3305L18.877 21.9425L12.8 14.854L5.354 26.804ZM29.227 36.7305C30.8783 36.7305 32.2885 36.1562 33.4575 35.0075C34.6268 33.8585 35.2115 32.4585 35.2115 30.8075C35.2115 29.1358 34.632 27.7205 33.473 26.5615C32.3137 25.4025 30.8982 24.823 29.2265 24.823C27.5755 24.823 26.1757 25.411 25.027 26.587C23.8783 27.7627 23.304 29.1697 23.304 30.808C23.304 32.459 23.8783 33.8588 25.027 35.0075C26.176 36.1562 27.576 36.7305 29.227 36.7305ZM39.85 43L34.1925 37.342C33.4975 37.855 32.7347 38.2595 31.904 38.5555C31.073 38.8518 30.1807 39 29.227 39C26.9443 39 25.0082 38.2057 23.4185 36.617C21.8292 35.028 21.0345 33.0927 21.0345 30.811C21.0345 28.542 21.829 26.5987 23.418 24.981C25.0067 23.363 26.9418 22.554 29.2235 22.554C31.5258 22.554 33.4777 23.357 35.079 24.963C36.68 26.569 37.4805 28.5172 37.4805 30.8075C37.4805 31.7615 37.3325 32.657 37.0365 33.494C36.7402 34.3313 36.3253 35.0975 35.792 35.7925L41.4305 41.419L39.85 43Z" fill="#31A5FD"/>
</g>
</g>
<defs>
<clipPath id="clip0_29_916">
<rect width="46" height="46" fill="white" transform="translate(0.5)"/>
</clipPath>
<clipPath id="clip1_29_916">
<rect width="48" height="48" fill="white" transform="translate(0.5)"/>
</clipPath>
</defs>
</svg>
