<svg width="46" height="46" viewBox="0 0 46 46" fill="none" xmlns="http://www.w3.org/2000/svg">
<rect width="46" height="46" rx="23" fill="#1A1A1E"/>
<g clip-path="url(#clip0_7_279)">
<g clip-path="url(#clip1_7_279)">
<g clip-path="url(#clip2_7_279)">
<mask id="mask0_7_279" style="mask-type:luminance" maskUnits="userSpaceOnUse" x="8" y="7" width="32" height="32">
<path d="M40 7H8V39H40V7Z" fill="white"/>
</mask>
<g mask="url(#mask0_7_279)">
<path d="M38.6668 28.7333C37.9335 28.7333 37.3057 28.4722 36.7835 27.95C36.2613 27.4278 36.0001 26.8 36.0001 26.0667V20.7333C36.0001 19.9778 36.2613 19.3444 36.7835 18.8333C37.3057 18.3222 37.9335 18.0667 38.6668 18.0667H40.0001V28.7333H38.6668ZM17.7002 31.3667C17.3668 31.3667 17.0335 31.3056 16.7002 31.1833C16.3668 31.0611 16.0668 30.8667 15.8002 30.6L10.1335 24.9667C9.86684 24.7 9.66684 24.4056 9.5335 24.0833C9.40017 23.7611 9.3335 23.4333 9.3335 23.1C9.3335 22.7667 9.39462 22.4333 9.51684 22.1C9.63906 21.7667 9.8335 21.4667 10.1002 21.2L13.9335 17.3333C14.5779 16.6889 15.3057 16.2 16.1168 15.8667C16.9279 15.5334 17.7779 15.3667 18.6668 15.3667C20.5335 15.3667 22.1113 16.0111 23.4001 17.3C24.689 18.5889 25.3335 20.1667 25.3335 22.0333C25.3335 22.9222 25.1668 23.7722 24.8335 24.5833C24.5001 25.3944 24.0113 26.1222 23.3668 26.7667L19.5668 30.5667C19.3001 30.8333 19.0057 31.0333 18.6835 31.1667C18.3613 31.3 18.0335 31.3667 17.7002 31.3667ZM18.6668 18.0333C18.1557 18.0333 17.6557 18.1333 17.1668 18.3333C16.6779 18.5333 16.2335 18.8333 15.8335 19.2333L12.0002 23.0667L17.6668 28.7333L21.5001 24.9C21.9001 24.5 22.2001 24.0556 22.4001 23.5667C22.6001 23.0778 22.7001 22.5778 22.7001 22.0667C22.7001 20.9333 22.3113 19.9778 21.5335 19.2C20.7557 18.4222 19.8001 18.0333 18.6668 18.0333ZM30.6001 27.4667L29.2001 26.0667L30.8001 24.4667H26.6668V22.4667H30.9335L29.2668 20.8L30.6668 19.4L34.6668 23.4L30.6001 27.4667Z" fill="white"/>
</g>
</g>
</g>
</g>
<defs>
<clipPath id="clip0_7_279">
<rect width="32" height="32" fill="white" transform="translate(8 7)"/>
</clipPath>
<clipPath id="clip1_7_279">
<rect width="32" height="32" fill="white" transform="translate(8 7)"/>
</clipPath>
<clipPath id="clip2_7_279">
<rect width="32" height="32" fill="white" transform="translate(8 7)"/>
</clipPath>
</defs>
</svg>
