<svg width="47" height="46" viewBox="0 0 47 46" fill="none" xmlns="http://www.w3.org/2000/svg">
<g clip-path="url(#clip0_29_925)">
<g clip-path="url(#clip1_29_925)">
<path d="M5.00012 37.5001V35.2001H44.0001V37.5001H5.00012ZM6.40012 25.0306L4.76561 24.1426L6.80412 20.6461H2.80762V18.8196H6.80412L4.76561 15.3616L6.40012 14.4541L8.35761 17.8811L10.3156 14.4541L11.9306 15.3616L9.91161 18.8196H13.9076V20.6461H9.91161L11.9306 24.1426L10.3156 25.0306L8.35761 21.5846L6.40012 25.0306ZM22.5426 25.0306L20.9076 24.0616L22.9461 20.5846H18.9501V18.7386H22.9461L20.9076 15.2811L22.5426 14.3926L24.5001 17.8001L26.4576 14.3926L28.0926 15.2811L26.0541 18.7386H30.0501V20.5846H26.0541L28.0926 24.0616L26.4576 25.0306L24.5001 21.5846L22.5426 25.0306ZM38.6846 25.0306L37.0696 24.0616L39.0886 20.5846H35.0926V18.7386H39.0886L37.0696 15.2811L38.6846 14.3926L40.6426 17.8001L42.6001 14.3926L44.2346 15.2811L42.1961 18.7386H46.1926V20.5846H42.1961L44.2346 24.0616L42.6001 25.0306L40.6426 21.5846L38.6846 25.0306Z" fill="#31A5FD"/>
</g>
</g>
<defs>
<clipPath id="clip0_29_925">
<rect width="46" height="46" fill="white" transform="translate(0.5)"/>
</clipPath>
<clipPath id="clip1_29_925">
<rect width="48" height="48" fill="white" transform="translate(0.5)"/>
</clipPath>
</defs>
</svg>
