<svg width="46" height="46" viewBox="0 0 46 46" fill="none" xmlns="http://www.w3.org/2000/svg">
<rect width="46" height="46" rx="23" fill="#1A1A1E"/>
<g clip-path="url(#clip0_7_320)">
<g clip-path="url(#clip1_7_320)">
<path d="M19.0332 36.3334C18.7221 36.3334 18.4499 36.2501 18.2165 36.0834C17.9832 35.9168 17.8221 35.689 17.7332 35.4001L14.3332 24.3334H9.6665V21.6668H15.3332C15.6221 21.6668 15.8832 21.7501 16.1165 21.9168C16.3498 22.0834 16.5109 22.3112 16.5998 22.6001L18.7999 29.7668L23.0332 10.7334C23.0999 10.4223 23.2554 10.1667 23.4999 9.96675C23.7443 9.76675 24.0221 9.66675 24.3332 9.66675C24.6443 9.66675 24.9221 9.76119 25.1665 9.95008C25.411 10.139 25.5665 10.389 25.6332 10.7001L28.5332 23.2334L30.3999 17.2668C30.4887 16.9779 30.6499 16.7501 30.8832 16.5834C31.1165 16.4167 31.3776 16.3334 31.6665 16.3334C31.9554 16.3334 32.211 16.4112 32.4332 16.5667C32.6554 16.7223 32.8221 16.9334 32.9332 17.2001L34.5999 21.6668H36.3332V24.3334H33.6665C33.3776 24.3334 33.1221 24.2556 32.8999 24.1001C32.6776 23.9445 32.511 23.7334 32.3999 23.4668L31.7665 21.7668L29.5999 28.7334C29.511 29.0223 29.3443 29.2556 29.0999 29.4334C28.8554 29.6112 28.5776 29.689 28.2665 29.6668C27.9554 29.6445 27.6887 29.539 27.4665 29.3501C27.2443 29.1612 27.0999 28.9223 27.0332 28.6334L24.3332 17.0334L20.2999 35.3001C20.2332 35.6112 20.0832 35.8556 19.8499 36.0334C19.6165 36.2112 19.3443 36.3112 19.0332 36.3334Z" fill="white"/>
</g>
</g>
<defs>
<clipPath id="clip0_7_320">
<rect width="32" height="32" fill="white" transform="translate(7 7)"/>
</clipPath>
<clipPath id="clip1_7_320">
<rect width="32" height="32" fill="white" transform="translate(7 7)"/>
</clipPath>
</defs>
</svg>
