<svg width="47" height="46" viewBox="0 0 47 46" fill="none" xmlns="http://www.w3.org/2000/svg">
<g clip-path="url(#clip0_29_960)">
<g clip-path="url(#clip1_29_960)">
<path d="M33.5768 43.227V37.846H30.2693L35.4228 28.804V34.154H38.7303L33.5768 43.227ZM16.8268 43C16.4182 43 16.0757 42.8618 15.7993 42.5855C15.5227 42.3088 15.3843 41.9662 15.3843 41.5575V9.3345C15.3843 8.9385 15.5227 8.59917 15.7993 8.3165C16.0757 8.03383 16.4182 7.8925 16.8268 7.8925H20.8073V5H28.1923V7.8925H32.1768C32.5862 7.8925 32.9282 8.03383 33.2028 8.3165C33.4778 8.59917 33.6153 8.9385 33.6153 9.3345V25.177C33.21 25.2027 32.8183 25.2423 32.4403 25.296C32.062 25.35 31.6972 25.441 31.3458 25.569V10.1425H17.6538V40.7305H24.6768C24.9095 41.1612 25.1688 41.5643 25.4548 41.94C25.7412 42.316 26.0472 42.6693 26.3728 43H16.8268Z" fill="#31A5FD"/>
</g>
</g>
<defs>
<clipPath id="clip0_29_960">
<rect width="46" height="46" fill="white" transform="translate(0.5)"/>
</clipPath>
<clipPath id="clip1_29_960">
<rect width="48" height="48" fill="white" transform="translate(0.5)"/>
</clipPath>
</defs>
</svg>
