<svg width="32" height="33" viewBox="0 0 32 33" fill="none" xmlns="http://www.w3.org/2000/svg">
<g clip-path="url(#clip0_10_1789)">
<path d="M31.9983 24.5504C31.9983 24.7238 31.993 25.0999 31.9826 25.3904C31.9571 26.1011 31.9008 27.0183 31.8156 27.4362C31.6875 28.0642 31.4942 28.6569 31.2421 29.1503C30.9439 29.7339 30.5635 30.2567 30.1115 30.7079C29.6605 31.1582 29.1382 31.5371 28.5554 31.8341C28.0595 32.0869 27.463 32.2803 26.8314 32.4078C26.4177 32.4913 25.5074 32.5466 24.8012 32.5717C24.5104 32.5821 24.1342 32.5873 23.9615 32.5873L8.36743 32.5848C8.19403 32.5848 7.81802 32.5795 7.52753 32.5691C6.81674 32.5436 5.89957 32.4872 5.48166 32.4021C4.85366 32.274 4.26089 32.0807 3.76755 31.8286C3.1839 31.5304 2.66114 31.15 2.20995 30.6979C1.75966 30.2469 1.38075 29.7247 1.08376 29.1419C0.830961 28.6459 0.637545 28.0495 0.510034 27.4179C0.426532 27.0042 0.371266 26.0939 0.346123 25.3876C0.335793 25.0969 0.330566 24.7207 0.330566 24.548L0.333041 8.95389C0.333041 8.78048 0.338329 8.40445 0.348751 8.11395C0.374266 7.40316 0.430583 6.486 0.515787 6.06812C0.643854 5.44012 0.837146 4.84735 1.08923 4.35397C1.38746 3.77035 1.76789 3.24757 2.21988 2.79638C2.67092 2.34612 3.19321 1.96717 3.77596 1.67015C4.27193 1.41742 4.86841 1.224 5.49997 1.09649C5.91368 1.01296 6.824 0.957692 7.53025 0.932579C7.82102 0.922219 8.19718 0.916992 8.36988 0.916992L23.964 0.919497C24.1374 0.919497 24.5134 0.924786 24.8039 0.935208C25.5147 0.960723 26.4318 1.01704 26.8498 1.10224C27.4777 1.23031 28.0705 1.4236 28.5639 1.67569C29.1475 1.97391 29.6703 2.35434 30.1214 2.80634C30.5717 3.25737 30.9507 3.77963 31.2476 4.36242C31.5004 4.85839 31.6939 5.45484 31.8214 6.08639C31.9049 6.50013 31.9601 7.41043 31.9853 8.1167C31.9956 8.40748 32.0009 8.78361 32.0009 8.95636L31.9983 24.5504Z" fill="#F8F8F8"/>
<path d="M24.5559 8.40861C22.4118 6.2627 19.5603 5.08031 16.5223 5.0791C10.2626 5.0791 5.16804 10.1717 5.16554 16.4314C5.16473 18.4324 5.68767 20.3855 6.68147 22.1072L5.07031 27.9903L11.0907 26.4116C12.7495 27.316 14.617 27.7927 16.5177 27.7935H16.5224C22.7814 27.7935 27.8765 22.7002 27.879 16.4405C27.8802 13.407 26.7001 10.5545 24.5559 8.40861ZM16.5224 25.8761H16.5186C14.8248 25.8754 13.1635 25.4205 11.7143 24.5608L11.3696 24.3563L7.797 25.2931L8.75059 21.811L8.5261 21.454C7.58122 19.9516 7.08219 18.2151 7.08293 16.4322C7.08497 11.2294 11.3194 6.99656 16.5261 6.99656C19.0472 6.99752 21.4173 7.98037 23.1994 9.76394C24.9816 11.5475 25.9625 13.9184 25.9615 16.4398C25.9595 21.643 21.7251 25.8761 16.5224 25.8761ZM21.7 18.8088C21.4162 18.6669 20.0211 17.9806 19.761 17.8859C19.5009 17.7912 19.3118 17.7439 19.1225 18.0279C18.9334 18.3119 18.3896 18.9509 18.224 19.1402C18.0585 19.3295 17.893 19.3532 17.6092 19.2112C17.3254 19.0692 16.4111 18.7696 15.3273 17.8032C14.4837 17.0511 13.9142 16.122 13.7487 15.838C13.5831 15.554 13.7311 15.4005 13.8731 15.2591C14.0007 15.132 14.1569 14.9277 14.2988 14.7621C14.4406 14.5965 14.4879 14.4781 14.5825 14.2888C14.6771 14.0995 14.6298 13.9338 14.5588 13.7918C14.4879 13.6498 13.9204 12.2535 13.6839 11.6856C13.4536 11.1324 13.2196 11.2073 13.0455 11.1986C12.8801 11.1903 12.6908 11.1886 12.5016 11.1886C12.3125 11.1886 12.005 11.2596 11.7449 11.5436C11.4848 11.8276 10.7518 12.5139 10.7518 13.9101C10.7518 15.3064 11.7685 16.6553 11.9104 16.8446C12.0523 17.034 13.9114 19.8993 16.7579 21.128C17.435 21.4203 17.9635 21.5948 18.3756 21.7256C19.0554 21.9414 19.674 21.911 20.163 21.838C20.7082 21.7566 21.8418 21.1518 22.0783 20.4891C22.3148 19.8264 22.3148 19.2585 22.2439 19.1402C22.1729 19.0219 21.9838 18.9509 21.7 18.8088Z" fill="#09090C"/>
</g>
<defs>
<clipPath id="clip0_10_1789">
<rect width="31.669" height="31.669" fill="white" transform="translate(0.331055 0.885742)"/>
</clipPath>
</defs>
</svg>
