<svg width="23" height="23" viewBox="0 0 23 23" fill="none" xmlns="http://www.w3.org/2000/svg">
<path d="M19.5612 3.34242C17.4087 1.18819 14.5462 0.00121082 11.4964 0C5.21246 0 0.0981074 5.1124 0.0955926 11.3964C0.0947854 13.4051 0.619754 15.3658 1.61741 17.0941L0 23.0001L6.0437 21.4153C7.70892 22.3232 9.58371 22.8017 11.4918 22.8025H11.4965C17.7798 22.8025 22.8946 17.6895 22.8972 11.4054C22.8984 8.36016 21.7137 5.49666 19.5612 3.34242ZM11.4965 20.8776H11.4926C9.79231 20.877 8.12461 20.4203 6.66973 19.5572L6.32368 19.352L2.73726 20.2925L3.69456 16.7968L3.46919 16.4384C2.52065 14.9302 2.01968 13.187 2.02043 11.3971C2.02247 6.17416 6.27335 1.92489 11.5002 1.92489C14.0311 1.92586 16.4103 2.91252 18.1994 4.70301C19.9885 6.49351 20.9732 8.87358 20.9723 11.4047C20.9702 16.6281 16.7194 20.8776 11.4965 20.8776ZM16.6942 13.783C16.4093 13.6405 15.0088 12.9515 14.7477 12.8565C14.4866 12.7614 14.2967 12.7139 14.1067 12.999C13.9169 13.2841 13.3709 13.9256 13.2047 14.1156C13.0386 14.3057 12.8724 14.3294 12.5875 14.1869C12.3027 14.0443 11.3848 13.7436 10.2967 12.7734C9.44993 12.0184 8.87817 11.0858 8.71201 10.8006C8.54585 10.5155 8.69435 10.3615 8.83694 10.2195C8.96507 10.0919 9.1218 9.88685 9.26424 9.72056C9.40665 9.55431 9.45415 9.43546 9.54909 9.24542C9.64406 9.05536 9.59656 8.88904 9.52534 8.7465C9.45415 8.60397 8.88441 7.20227 8.64703 6.6321C8.41583 6.0768 8.18093 6.15193 8.00607 6.14321C7.8401 6.13495 7.65 6.13321 7.46011 6.13321C7.27023 6.13321 6.9616 6.20446 6.7005 6.48956C6.43939 6.77467 5.70349 7.46362 5.70349 8.86529C5.70349 10.267 6.72422 11.6211 6.86666 11.8112C7.0091 12.0012 8.87535 14.8777 11.7329 16.1112C12.4126 16.4046 12.9432 16.5798 13.3569 16.7111C14.0393 16.9277 14.6603 16.8972 15.1512 16.8239C15.6985 16.7421 16.8366 16.135 17.074 15.4698C17.3114 14.8045 17.3114 14.2344 17.2402 14.1156C17.1689 13.9968 16.9791 13.9256 16.6942 13.783Z" fill="#09090C"/>
</svg>
