<svg width="33" height="33" viewBox="0 0 33 33" fill="none" xmlns="http://www.w3.org/2000/svg">
<g clip-path="url(#clip0_10_1776)">
<path d="M32.3294 24.5504C32.3294 24.7238 32.3241 25.0999 32.3137 25.3904C32.2882 26.1011 32.2318 27.0183 32.1466 27.4362C32.0186 28.0642 31.8252 28.6569 31.5732 29.1503C31.275 29.7339 30.8946 30.2567 30.4425 30.7079C29.9915 31.1582 29.4692 31.5371 28.8865 31.8341C28.3905 32.0869 27.7941 32.2803 27.1625 32.4078C26.7487 32.4913 25.8385 32.5466 25.1322 32.5717C24.8414 32.5821 24.4653 32.5873 24.2925 32.5873L8.69849 32.5848C8.52508 32.5848 8.14908 32.5795 7.85858 32.5691C7.14779 32.5436 6.23063 32.4872 5.81271 32.4021C5.18472 32.274 4.59194 32.0807 4.0986 31.8286C3.51495 31.5304 2.9922 31.15 2.54101 30.6979C2.09071 30.2469 1.7118 29.7247 1.41481 29.1419C1.16202 28.6459 0.9686 28.0495 0.841089 27.4179C0.757587 27.0042 0.702321 26.0939 0.677177 25.3876C0.666848 25.0969 0.661621 24.7207 0.661621 24.548L0.664095 8.95389C0.664095 8.78048 0.669384 8.40445 0.679806 8.11395C0.705321 7.40316 0.761638 6.486 0.846841 6.06812C0.974909 5.44012 1.1682 4.84735 1.42028 4.35397C1.71851 3.77035 2.09894 3.24757 2.55093 2.79638C3.00197 2.34612 3.52426 1.96717 4.10701 1.67015C4.60298 1.41742 5.19947 1.224 5.83102 1.09649C6.24473 1.01296 7.15506 0.957692 7.8613 0.932579C8.15207 0.922219 8.52824 0.916992 8.70093 0.916992L24.295 0.919497C24.4685 0.919497 24.8445 0.924786 25.135 0.935208C25.8457 0.960723 26.7629 1.01704 27.1808 1.10224C27.8088 1.23031 28.4016 1.4236 28.8949 1.67569C29.4786 1.97391 30.0013 2.35434 30.4525 2.80634C30.9028 3.25737 31.2817 3.77963 31.5787 4.36242C31.8315 4.85839 32.0249 5.45484 32.1524 6.08639C32.2359 6.50013 32.2912 7.41043 32.3163 8.1167C32.3267 8.40748 32.3319 8.78361 32.3319 8.95636L32.3294 24.5504Z" fill="#F8F8F8"/>
<path d="M7.90403 16.2002C12.568 14.1682 15.68 12.8282 17.236 12.1802C21.678 10.3322 22.604 10.0102 23.204 10.0002C23.4251 9.99554 23.642 10.0606 23.824 10.1862C23.9518 10.2972 24.0332 10.4521 24.052 10.6202C24.084 10.8286 24.0927 11.0399 24.078 11.2502C23.838 13.7802 22.796 19.9182 22.266 22.7522C22.042 23.9522 21.6 24.3522 21.172 24.3922C20.438 24.4602 19.84 24.0362 19.178 23.5642C19.004 23.4402 18.824 23.3102 18.638 23.1902C17.902 22.7062 17.334 22.3202 16.766 21.9322C16.244 21.5762 15.72 21.2222 15.066 20.7902C13.708 19.8942 14.276 19.3462 15.036 18.6142C15.1634 18.4923 15.2887 18.3683 15.412 18.2422C15.468 18.1842 15.742 17.9302 16.128 17.5702L16.1936 17.5092C17.4485 16.3415 19.7611 14.1898 19.82 13.9362C19.83 13.8942 19.84 13.7362 19.746 13.6542C19.654 13.5702 19.514 13.5982 19.414 13.6222C19.274 13.6542 17.024 15.1402 12.666 18.0822C12.028 18.5222 11.45 18.7342 10.93 18.7222C10.36 18.7102 9.26003 18.4002 8.44403 18.1342L8.09403 18.0242L8.09131 18.0234C7.2627 17.7618 6.6541 17.5697 6.71403 17.0842C6.75003 16.7962 7.14803 16.5002 7.90403 16.2002Z" fill="#09090C"/>
</g>
<defs>
<clipPath id="clip0_10_1776">
<rect width="31.669" height="31.669" fill="white" transform="translate(0.662109 0.885742)"/>
</clipPath>
</defs>
</svg>
