<svg width="18" height="15" viewBox="0 0 18 15" fill="none" xmlns="http://www.w3.org/2000/svg">
<path d="M1.23702 6.42327C6.06879 4.31817 9.29274 2.92997 10.9047 2.25866C15.5065 0.344189 16.4658 0.0106063 17.0874 0.000246573C17.3164 -0.00462501 17.5412 0.0627977 17.7297 0.192937C17.8621 0.307845 17.9464 0.468342 17.9659 0.642549C17.999 0.858438 18.008 1.07733 17.9928 1.29521C17.7442 3.91622 16.6647 10.275 16.1156 13.211C15.8836 14.4541 15.4257 14.8685 14.9823 14.9099C14.2219 14.9804 13.6024 14.5411 12.9166 14.0522C12.7363 13.9237 12.5498 13.789 12.3571 13.6647C11.5947 13.1633 11.0062 12.7634 10.4178 12.3615C9.87702 11.9927 9.33418 11.6259 8.65665 11.1784C7.2498 10.2501 7.83823 9.68243 8.62557 8.9241C8.75749 8.79776 8.88735 8.66928 9.0151 8.53872C9.07311 8.47864 9.35697 8.2155 9.75685 7.84255L9.82477 7.77935C11.1248 6.56966 13.5206 4.34047 13.5817 4.07783C13.592 4.03432 13.6024 3.87064 13.505 3.78569C13.4097 3.69866 13.2647 3.72767 13.1611 3.75253C13.016 3.78569 10.6851 5.32514 6.17032 8.37297C5.50937 8.82879 4.91058 9.04842 4.37187 9.03599C3.78137 9.02356 2.6418 8.70241 1.79645 8.42684L1.43386 8.31288L1.43104 8.31199C0.57262 8.04102 -0.0578726 7.842 0.00421763 7.33907C0.0415126 7.04071 0.453829 6.73406 1.23702 6.42327Z" fill="#09090C"/>
</svg>
