<svg width="221" height="37" viewBox="0 0 221 37" fill="none" xmlns="http://www.w3.org/2000/svg">
<g clip-path="url(#clip0_37_1003)">
<g clip-path="url(#clip1_37_1003)">
<mask id="mask0_37_1003" style="mask-type:luminance" maskUnits="userSpaceOnUse" x="0" y="0" width="221" height="37">
<path d="M221 0H0V36.4394H221V0Z" fill="white"/>
</mask>
<g mask="url(#mask0_37_1003)">
<path d="M177.839 30.5556C176.702 30.5556 175.675 30.3065 174.787 29.7977C173.89 29.2892 173.222 28.601 172.773 27.7434V30.2464H168.914V7.9082H172.873V17.033C173.341 16.2552 174.01 15.6269 174.887 15.1482C175.765 14.6695 176.752 14.4402 177.849 14.4402C179.225 14.4402 180.412 14.7693 181.429 15.4175C182.446 16.0757 183.234 16.9931 183.803 18.1898C184.371 19.3865 184.66 20.8126 184.66 22.478C184.66 24.1434 184.371 25.5596 183.803 26.7663C183.234 27.9829 182.436 28.9102 181.409 29.5685C180.382 30.2265 179.195 30.5457 177.849 30.5457L177.839 30.5556ZM176.732 27.5441C177.919 27.5441 178.866 27.1151 179.584 26.2575C180.302 25.3999 180.661 24.1434 180.661 22.478C180.661 20.8126 180.302 19.5261 179.584 18.6984C178.866 17.8607 177.919 17.4519 176.732 17.4519C175.545 17.4519 174.598 17.8707 173.88 18.6984C173.162 19.5361 172.803 20.7926 172.803 22.478C172.803 24.1633 173.162 25.4099 173.88 26.2575C174.598 27.1151 175.545 27.5441 176.732 27.5441Z" fill="white"/>
<path d="M193.386 30.5551C192.269 30.5551 191.272 30.3358 190.395 29.907C189.517 29.4782 188.829 28.8897 188.34 28.1517C187.852 27.4137 187.592 26.5761 187.592 25.6487C187.592 24.5118 187.892 23.6044 188.48 22.9462C189.068 22.288 190.036 21.7993 191.362 21.5002C192.688 21.201 194.473 21.0614 196.717 21.0614H197.824V20.3932C197.824 19.3361 197.595 18.5782 197.126 18.1095C196.657 17.6408 195.879 17.4114 194.783 17.4114C193.915 17.4114 193.027 17.5411 192.12 17.8103C191.212 18.0796 190.295 18.4785 189.368 19.027L188.231 16.3344C188.779 15.9555 189.427 15.6264 190.175 15.3372C190.923 15.048 191.711 14.8286 192.549 14.669C193.386 14.5095 194.164 14.4297 194.912 14.4297C197.176 14.4297 198.851 14.9483 199.948 15.9953C201.045 17.0425 201.594 18.658 201.594 20.8519V30.226H197.884V27.7528C197.525 28.6204 196.957 29.2986 196.179 29.7972C195.401 30.296 194.473 30.5451 193.396 30.5451L193.386 30.5551ZM194.214 27.8326C195.251 27.8326 196.109 27.4738 196.797 26.7557C197.485 26.0377 197.824 25.1302 197.824 24.0332V23.3351H196.747C194.762 23.3351 193.386 23.4847 192.618 23.7938C191.851 24.103 191.462 24.6515 191.462 25.4591C191.462 26.1573 191.701 26.7258 192.19 27.1646C192.678 27.6034 193.347 27.8326 194.214 27.8326Z" fill="white"/>
<path d="M213.202 36.2495C211.766 36.2495 210.419 36.0898 209.163 35.7609C207.906 35.4318 206.799 34.933 205.852 34.255L206.989 31.5026C207.876 32.0909 208.824 32.5296 209.841 32.8189C210.858 33.1082 211.865 33.2477 212.882 33.2477C215.715 33.2477 217.121 31.8816 217.121 29.1591V27.0348C216.682 27.9026 215.994 28.5905 215.076 29.0893C214.159 29.5978 213.142 29.8472 212.025 29.8472C210.629 29.8472 209.422 29.5281 208.385 28.8798C207.348 28.2315 206.55 27.334 205.982 26.1772C205.413 25.0204 205.124 23.6642 205.124 22.1284C205.124 20.5927 205.413 19.2364 205.982 18.0896C206.55 16.9427 207.358 16.0452 208.385 15.397C209.422 14.7488 210.629 14.4297 212.025 14.4297C213.182 14.4297 214.219 14.689 215.126 15.2075C216.034 15.7261 216.702 16.4142 217.121 17.2818V14.7488H220.98V28.6804C220.98 31.1934 220.312 33.0783 218.986 34.3447C217.659 35.6112 215.725 36.2495 213.192 36.2495H213.202ZM213.112 26.8454C214.338 26.8454 215.306 26.4266 216.024 25.579C216.742 24.7313 217.101 23.5844 217.101 22.1284C217.101 20.6725 216.742 19.5256 216.024 18.6879C215.306 17.8502 214.338 17.4414 213.112 17.4414C211.885 17.4414 210.918 17.8602 210.2 18.6879C209.482 19.5256 209.123 20.6625 209.123 22.1284C209.123 23.5944 209.482 24.7313 210.2 25.579C210.918 26.4266 211.885 26.8454 213.112 26.8454Z" fill="white"/>
<path d="M26.0381 16.2055L19.7355 18.1501C20.0846 19.3668 20.2541 20.6333 20.2342 21.8998C20.2342 28.1226 17.1427 31.2041 10.9598 31.2041H6.3425V12.6254H12.8146V7.42969H0V36.4396H26.1378C26.1378 36.4396 26.3274 18.7684 26.0381 16.2055Z" fill="white"/>
<path d="M15.8062 6.78123V-5.61664e-05C15.8062 -5.61664e-05 27.414 -0.329148 31.2236 11.4583L23.9337 13.9614C23.9337 13.9614 22.9365 8.10756 15.8062 6.78123Z" fill="#E21518"/>
<path d="M45.3451 30.5058C42.7621 30.6055 40.3787 29.0996 39.3616 26.7261C38.7632 25.38 38.4739 23.924 38.5041 22.4481C38.4639 20.9721 38.7632 19.5162 39.3616 18.1699C40.3986 15.8164 42.7721 14.3305 45.3451 14.4202C46.392 14.4003 47.4193 14.6496 48.3367 15.1482C49.1746 15.587 49.8625 16.2552 50.3312 17.0729V7.9082H54.3204V30.1866H50.4012V27.6338C49.9724 28.5213 49.2743 29.2593 48.4067 29.728C47.4691 30.2564 46.4122 30.5257 45.3451 30.5058ZM46.4521 27.514C47.5489 27.5541 48.5961 27.0752 49.2942 26.2376C50.082 25.1405 50.4709 23.8043 50.3713 22.458C50.4709 21.1117 50.092 19.7655 49.2942 18.6785C47.8381 17.1028 45.385 17.0131 43.8093 18.469C43.7395 18.5389 43.6698 18.6087 43.5998 18.6785C42.8119 19.7754 42.433 21.1117 42.5329 22.458C42.4429 23.8043 42.8119 25.1405 43.5998 26.2376C44.3079 27.0752 45.3551 27.5441 46.4521 27.504V27.514Z" fill="white"/>
<path d="M65.978 30.5061C64.4123 30.536 62.8666 30.1969 61.4606 29.509C60.234 28.8906 59.2167 27.9234 58.5385 26.7267C57.8307 25.4201 57.4916 23.9443 57.5414 22.4584C57.5115 20.9924 57.8506 19.5564 58.5385 18.2599C59.1769 17.0832 60.1341 16.1059 61.2909 15.4278C62.5076 14.7496 63.8839 14.4006 65.2799 14.4305C67.2345 14.3308 69.1293 15.0987 70.4758 16.5148C71.8219 18.1004 72.5001 20.1348 72.3903 22.209V23.3758H61.3009C61.5902 26.1382 63.1758 27.5145 66.0378 27.5145C66.9156 27.5145 67.7931 27.3747 68.6308 27.1156C69.4983 26.8562 70.2961 26.4374 71.0042 25.8688L72.1112 28.5216C71.2835 29.1799 70.346 29.6784 69.3289 29.9777C68.2418 30.3267 67.1149 30.5061 65.978 30.5061ZM65.4097 17.1031C64.3625 17.0633 63.3455 17.4522 62.5975 18.1802C61.8495 18.978 61.3908 20.0051 61.3009 21.0921H69.0695C69.0695 20.0051 68.7005 18.9481 68.0124 18.1004C67.3344 17.4023 66.3769 17.0433 65.4097 17.1031Z" fill="white"/>
<path d="M81.2757 30.5058C79.7698 30.6354 78.2838 30.087 77.217 29.0099C76.2595 27.7434 75.7908 26.1778 75.9004 24.5921V7.9082H79.8894V24.4027C79.8894 26.3073 80.6972 27.2548 82.2927 27.2548C82.5222 27.2648 82.7616 27.2648 82.9909 27.2548C83.2104 27.2349 83.4296 27.195 83.6491 27.135L83.5893 30.2664C82.8314 30.446 82.0536 30.5257 81.2757 30.5058Z" fill="white"/>
<path d="M86.561 11.4189V7.55957H90.9888V11.4189H86.561ZM86.8102 30.187V14.7398H90.7992V30.187H86.8102Z" fill="white"/>
<path d="M100.253 30.1866L93.5518 14.7393H97.7303L102.028 25.5493L106.476 14.7393H110.465L103.714 30.1866H100.253Z" fill="white"/>
<path d="M119.67 30.5056C118.104 30.5355 116.558 30.1964 115.152 29.5085C113.926 28.8801 112.918 27.9129 112.23 26.7262C111.532 25.4097 111.183 23.9438 111.233 22.4579C111.203 20.9919 111.542 19.5559 112.23 18.2594C112.869 17.0827 113.826 16.1054 114.983 15.4273C116.199 14.7491 117.576 14.4001 118.972 14.43C120.926 14.3403 122.821 15.0982 124.168 16.5143C125.514 18.0999 126.192 20.1343 126.082 22.2086V23.3753H114.983C115.272 26.1377 116.858 27.524 119.72 27.514C120.597 27.514 121.475 27.3743 122.313 27.1149C123.17 26.8458 123.958 26.417 124.656 25.8584L125.763 28.5111C124.935 29.1694 123.998 29.668 122.981 29.9672C121.914 30.3163 120.797 30.4957 119.67 30.5056ZM119.101 17.1026C118.054 17.0627 117.037 17.4517 116.289 18.1797C115.541 18.9775 115.083 20.0046 115.003 21.0916H122.771C122.771 20.0046 122.402 18.9476 121.714 18.0999C121.026 17.4018 120.059 17.0328 119.082 17.1026H119.101Z" fill="white"/>
<path d="M129.582 30.1864V14.7391H133.431V17.4516C134.199 15.6267 135.815 14.6095 138.298 14.4599L139.505 14.3701L139.754 17.7109L137.48 17.9403C134.888 18.1896 133.591 19.5259 133.591 21.9292V30.2362L129.582 30.1864Z" fill="white"/>
<path d="M145.14 35.9009L147.982 29.5784L141.609 14.7393H145.808L150.136 25.5493L154.574 14.7393H158.563L149.218 35.9009H145.14Z" fill="white"/>
</g>
</g>
</g>
<defs>
<clipPath id="clip0_37_1003">
<rect width="221" height="36.44" fill="white"/>
</clipPath>
<clipPath id="clip1_37_1003">
<rect width="221" height="36.4395" fill="white"/>
</clipPath>
</defs>
</svg>
