<svg width="135" height="40" viewBox="0 0 135 40" fill="none" xmlns="http://www.w3.org/2000/svg">
<path d="M130 40H5C2.2 40 0 37.8 0 35V5C0 2.2 2.2 0 5 0H130C132.8 0 135 2.2 135 5V35C135 37.8 132.8 40 130 40Z" fill="#1A1C20"/>
<path d="M130 0.8C132.3 0.8 134.2 2.7 134.2 5V35C134.2 37.3 132.3 39.2 130 39.2H5C2.7 39.2 0.8 37.3 0.8 35V5C0.8 2.7 2.7 0.8 5 0.8H130ZM130 0H5C2.2 0 0 2.3 0 5V35C0 37.8 2.2 40 5 40H130C132.8 40 135 37.8 135 35V5C135 2.3 132.8 0 130 0Z" fill="#393E45"/>
<path d="M47.3999 10.1994C47.3999 10.9994 47.1999 11.6994 46.6999 12.1994C46.0999 12.7994 45.3999 13.0994 44.4999 13.0994C43.5999 13.0994 42.8999 12.7994 42.2999 12.1994C41.6999 11.5994 41.3999 10.8994 41.3999 9.99941C41.3999 9.09941 41.6999 8.39941 42.2999 7.79941C42.8999 7.19941 43.5999 6.89941 44.4999 6.89941C44.8999 6.89941 45.2999 6.99941 45.6999 7.19941C46.0999 7.39941 46.3999 7.59941 46.5999 7.89941L46.0999 8.39941C45.6999 7.89941 45.1999 7.69941 44.4999 7.69941C43.8999 7.69941 43.2999 7.89941 42.8999 8.39941C42.3999 8.79941 42.1999 9.39941 42.1999 10.0994C42.1999 10.7994 42.3999 11.3994 42.8999 11.7994C43.3999 12.1994 43.8999 12.4994 44.4999 12.4994C45.1999 12.4994 45.6999 12.2994 46.1999 11.7994C46.4999 11.4994 46.6999 11.0994 46.6999 10.5994H44.4999V9.79941H47.3999V10.1994ZM51.9999 7.69941H49.2999V9.59941H51.7999V10.2994H49.2999V12.1994H51.9999V12.9994H48.4999V6.99941H51.9999V7.69941ZM55.2999 12.9994H54.4999V7.69941H52.7999V6.99941H56.9999V7.69941H55.2999V12.9994ZM59.8999 12.9994V6.99941H60.6999V12.9994H59.8999ZM64.0999 12.9994H63.2999V7.69941H61.5999V6.99941H65.6999V7.69941H63.9999V12.9994H64.0999ZM73.5999 12.1994C72.9999 12.7994 72.2999 13.0994 71.3999 13.0994C70.4999 13.0994 69.7999 12.7994 69.1999 12.1994C68.5999 11.5994 68.2999 10.8994 68.2999 9.99941C68.2999 9.09941 68.5999 8.39941 69.1999 7.79941C69.7999 7.19941 70.4999 6.89941 71.3999 6.89941C72.2999 6.89941 72.9999 7.19941 73.5999 7.79941C74.1999 8.39941 74.4999 9.09941 74.4999 9.99941C74.4999 10.8994 74.1999 11.5994 73.5999 12.1994ZM69.7999 11.6994C70.1999 12.0994 70.7999 12.3994 71.3999 12.3994C71.9999 12.3994 72.5999 12.1994 72.9999 11.6994C73.3999 11.2994 73.6999 10.6994 73.6999 9.99941C73.6999 9.29941 73.4999 8.69941 72.9999 8.29941C72.5999 7.89941 71.9999 7.59941 71.3999 7.59941C70.7999 7.59941 70.1999 7.79941 69.7999 8.29941C69.3999 8.69941 69.0999 9.29941 69.0999 9.99941C69.0999 10.6994 69.2999 11.2994 69.7999 11.6994ZM75.5999 12.9994V6.99941H76.4999L79.3999 11.6994V6.99941H80.1999V12.9994H79.3999L76.2999 8.09941V12.9994H75.5999Z" fill="white" stroke="white" stroke-width="0.2" stroke-miterlimit="10"/>
<path d="M68.1001 21.8001C65.7001 21.8001 63.8001 23.6001 63.8001 26.1001C63.8001 28.5001 65.7001 30.4001 68.1001 30.4001C70.5001 30.4001 72.4001 28.6001 72.4001 26.1001C72.4001 23.5001 70.5001 21.8001 68.1001 21.8001ZM68.1001 28.6001C66.8001 28.6001 65.7001 27.5001 65.7001 26.0001C65.7001 24.5001 66.8001 23.4001 68.1001 23.4001C69.4001 23.4001 70.5001 24.4001 70.5001 26.0001C70.5001 27.5001 69.4001 28.6001 68.1001 28.6001ZM58.8001 21.8001C56.4001 21.8001 54.5001 23.6001 54.5001 26.1001C54.5001 28.5001 56.4001 30.4001 58.8001 30.4001C61.2001 30.4001 63.1001 28.6001 63.1001 26.1001C63.1001 23.5001 61.2001 21.8001 58.8001 21.8001ZM58.8001 28.6001C57.5001 28.6001 56.4001 27.5001 56.4001 26.0001C56.4001 24.5001 57.5001 23.4001 58.8001 23.4001C60.1001 23.4001 61.2001 24.4001 61.2001 26.0001C61.2001 27.5001 60.1001 28.6001 58.8001 28.6001ZM47.7001 23.1001V24.9001H52.0001C51.9001 25.9001 51.5001 26.7001 51.0001 27.2001C50.4001 27.8001 49.4001 28.5001 47.7001 28.5001C45.0001 28.5001 43.0001 26.4001 43.0001 23.7001C43.0001 21.0001 45.1001 18.9001 47.7001 18.9001C49.1001 18.9001 50.2001 19.5001 51.0001 20.2001L52.3001 18.9001C51.2001 17.9001 49.8001 17.1001 47.8001 17.1001C44.2001 17.1001 41.1001 20.1001 41.1001 23.7001C41.1001 27.3001 44.2001 30.3001 47.8001 30.3001C49.8001 30.3001 51.2001 29.7001 52.4001 28.4001C53.6001 27.2001 54.0001 25.5001 54.0001 24.2001C54.0001 23.8001 54.0001 23.4001 53.9001 23.1001H47.7001ZM93.1001 24.5001C92.7001 23.5001 91.7001 21.8001 89.5001 21.8001C87.3001 21.8001 85.5001 23.5001 85.5001 26.1001C85.5001 28.5001 87.3001 30.4001 89.7001 30.4001C91.6001 30.4001 92.8001 29.2001 93.2001 28.5001L91.8001 27.5001C91.3001 28.2001 90.7001 28.7001 89.7001 28.7001C88.7001 28.7001 88.1001 28.3001 87.6001 27.4001L93.3001 25.0001L93.1001 24.5001ZM87.3001 25.9001C87.3001 24.3001 88.6001 23.4001 89.5001 23.4001C90.2001 23.4001 90.9001 23.8001 91.1001 24.3001L87.3001 25.9001ZM82.6001 30.0001H84.5001V17.5001H82.6001V30.0001ZM79.6001 22.7001C79.1001 22.2001 78.3001 21.7001 77.3001 21.7001C75.2001 21.7001 73.2001 23.6001 73.2001 26.0001C73.2001 28.4001 75.1001 30.2001 77.3001 30.2001C78.3001 30.2001 79.1001 29.7001 79.5001 29.2001H79.6001V29.8001C79.6001 31.4001 78.7001 32.3001 77.3001 32.3001C76.2001 32.3001 75.4001 31.5001 75.2001 30.8001L73.6001 31.5001C74.1001 32.6001 75.3001 34.0001 77.4001 34.0001C79.6001 34.0001 81.4001 32.7001 81.4001 29.6001V22.0001H79.6001V22.7001ZM77.4001 28.6001C76.1001 28.6001 75.0001 27.5001 75.0001 26.0001C75.0001 24.5001 76.1001 23.4001 77.4001 23.4001C78.7001 23.4001 79.7001 24.5001 79.7001 26.0001C79.7001 27.5001 78.7001 28.6001 77.4001 28.6001ZM101.8 17.5001H97.3001V30.0001H99.2001V25.3001H101.8C103.9 25.3001 105.9 23.8001 105.9 21.4001C105.9 19.0001 103.9 17.5001 101.8 17.5001ZM101.9 23.5001H99.2001V19.2001H101.9C103.3 19.2001 104.1 20.4001 104.1 21.3001C104 22.4001 103.2 23.5001 101.9 23.5001ZM113.4 21.7001C112 21.7001 110.6 22.3001 110.1 23.6001L111.8 24.3001C112.2 23.6001 112.8 23.4001 113.5 23.4001C114.5 23.4001 115.4 24.0001 115.5 25.0001V25.1001C115.2 24.9001 114.4 24.6001 113.6 24.6001C111.8 24.6001 110 25.6001 110 27.4001C110 29.1001 111.5 30.2001 113.1 30.2001C114.4 30.2001 115 29.6001 115.5 29.0001H115.6V30.0001H117.4V25.2001C117.2 23.0001 115.5 21.7001 113.4 21.7001ZM113.2 28.6001C112.6 28.6001 111.7 28.3001 111.7 27.5001C111.7 26.5001 112.8 26.2001 113.7 26.2001C114.5 26.2001 114.9 26.4001 115.4 26.6001C115.2 27.8001 114.2 28.6001 113.2 28.6001ZM123.7 22.0001L121.6 27.4001H121.5L119.3 22.0001H117.3L120.6 29.6001L118.7 33.8001H120.6L125.7 22.0001H123.7ZM106.9 30.0001H108.8V17.5001H106.9V30.0001Z" fill="white"/>
<path d="M10.4 7.5C10.1 7.8 10 8.3 10 8.9V31C10 31.6 10.2 32.1 10.5 32.4L10.6 32.5L23 20.1V19.9L10.4 7.5Z" fill="url(#paint0_linear_25_364)"/>
<path d="M26.9999 24.2998L22.8999 20.1998V19.8998L26.9999 15.7998L27.0999 15.8998L31.9999 18.6998C33.3999 19.4998 33.3999 20.7998 31.9999 21.5998L26.9999 24.2998Z" fill="url(#paint1_linear_25_364)"/>
<path d="M27.0999 24.2L22.8999 20L10.3999 32.5C10.8999 33 11.5999 33 12.4999 32.6L27.0999 24.2Z" fill="url(#paint2_linear_25_364)"/>
<path d="M27.0999 15.7996L12.4999 7.49962C11.5999 6.99962 10.8999 7.09962 10.3999 7.59962L22.8999 19.9996L27.0999 15.7996Z" fill="url(#paint3_linear_25_364)"/>
<path opacity="0.2" d="M26.9999 24.0996L12.4999 32.2996C11.6999 32.7996 10.9999 32.6996 10.4999 32.2996L10.3999 32.3996L10.4999 32.4996C10.9999 32.8996 11.6999 32.9996 12.4999 32.4996L26.9999 24.0996Z" fill="#1A1C20"/>
<path opacity="0.12" d="M10.4 32.3C10.1 32 10 31.5 10 30.9V31C10 31.6 10.2 32.1 10.5 32.4V32.3H10.4ZM32 21.3L27 24.1L27.1 24.2L32 21.4C32.7 21 33 20.5 33 20C33 20.5 32.6 20.9 32 21.3Z" fill="#1A1C20"/>
<path opacity="0.25" d="M12.5 7.59978L32 18.6998C32.6 19.0998 33 19.4998 33 19.9998C33 19.4998 32.7 18.9998 32 18.5998L12.5 7.49978C11.1 6.69978 10 7.29978 10 8.89978V8.99978C10 7.49978 11.1 6.79978 12.5 7.59978Z" fill="white"/>
<defs>
<linearGradient id="paint0_linear_25_364" x1="21.8" y1="8.71" x2="5.017" y2="25.492" gradientUnits="userSpaceOnUse">
<stop stop-color="#00A0FF"/>
<stop offset="0.007" stop-color="#00A1FF"/>
<stop offset="0.26" stop-color="#00BEFF"/>
<stop offset="0.512" stop-color="#00D2FF"/>
<stop offset="0.76" stop-color="#00DFFF"/>
<stop offset="1" stop-color="#00E3FF"/>
</linearGradient>
<linearGradient id="paint1_linear_25_364" x1="33.8339" y1="20.0008" x2="9.6369" y2="20.0008" gradientUnits="userSpaceOnUse">
<stop stop-color="#FFE000"/>
<stop offset="0.409" stop-color="#FFBD00"/>
<stop offset="0.775" stop-color="#FFA500"/>
<stop offset="1" stop-color="#FF9C00"/>
</linearGradient>
<linearGradient id="paint2_linear_25_364" x1="24.8269" y1="22.296" x2="2.06891" y2="45.054" gradientUnits="userSpaceOnUse">
<stop stop-color="#FF3A44"/>
<stop offset="1" stop-color="#C31162"/>
</linearGradient>
<linearGradient id="paint3_linear_25_364" x1="7.2969" y1="0.175623" x2="17.4599" y2="10.3386" gradientUnits="userSpaceOnUse">
<stop stop-color="#32A071"/>
<stop offset="0.069" stop-color="#2DA771"/>
<stop offset="0.476" stop-color="#15CF74"/>
<stop offset="0.801" stop-color="#06E775"/>
<stop offset="1" stop-color="#00F076"/>
</linearGradient>
</defs>
</svg>
