<svg width="48" height="48" viewBox="0 0 48 48" fill="none" xmlns="http://www.w3.org/2000/svg">
<g clip-path="url(#clip0_7_916)">
<g clip-path="url(#clip1_7_916)">
<path d="M29.6925 43.019C28.0822 43.019 26.7308 42.4697 25.6385 41.371C24.5462 40.2723 24 38.9178 24 37.3075C24 36.4538 24.1847 35.6552 24.554 34.9115C24.923 34.1678 25.4307 33.5255 26.077 32.9845V27.6155C26.077 26.6178 26.4302 25.7658 27.1365 25.0595C27.8428 24.3532 28.6948 24 29.6925 24C30.6898 24 31.5417 24.3532 32.248 25.0595C32.9543 25.7658 33.3075 26.6178 33.3075 27.6155V32.9845C33.9332 33.5255 34.4358 34.1678 34.8155 34.9115C35.1948 35.6552 35.3845 36.4538 35.3845 37.3075C35.3845 38.9178 34.8332 40.2723 33.7305 41.371C32.6282 42.4697 31.2822 43.019 29.6925 43.019ZM26.3845 37.3075H33C33 36.5538 32.7948 35.9365 32.3845 35.4555C31.9742 34.9748 31.487 34.5203 30.923 34.092V27.6155C30.923 27.2718 30.8038 26.9808 30.5655 26.7425C30.3268 26.5038 30.0358 26.3845 29.6925 26.3845C29.3488 26.3845 29.0577 26.5038 28.819 26.7425C28.5807 26.9808 28.4615 27.2718 28.4615 27.6155V34.092C27.8768 34.5203 27.3845 34.9748 26.9845 35.4555C26.5845 35.9365 26.3845 36.5538 26.3845 37.3075ZM35.8655 32.077V29.7115H41V32.077H35.8655ZM35.8655 27.327V24.9615H43V27.327H35.8655ZM40.5385 20.346H38.2075C37.3512 17.177 35.6243 14.5387 33.027 12.431C30.4293 10.3233 27.4203 9.2695 24 9.2695C19.9103 9.2695 16.4328 10.7022 13.5675 13.5675C10.7022 16.4328 9.2695 19.9103 9.2695 24C9.2695 26.8283 9.98167 29.3828 11.406 31.6635C12.8303 33.9442 14.695 35.7 17 36.931V30.7305H19.2695V41H9V38.7305H15.6465C13.0718 37.2718 10.9872 35.2418 9.3925 32.6405C7.7975 30.0392 7 27.159 7 24C7 21.641 7.44617 19.4308 8.3385 17.3695C9.23083 15.3078 10.4437 13.5103 11.977 11.977C13.5103 10.4437 15.3078 9.23083 17.3695 8.3385C19.4308 7.44617 21.641 7 24 7C28.0693 7 31.634 8.26667 34.694 10.8C37.7543 13.3333 39.7025 16.5153 40.5385 20.346Z" fill="#FF0000"/>
</g>
</g>
<defs>
<clipPath id="clip0_7_916">
<rect width="48" height="48" fill="white"/>
</clipPath>
<clipPath id="clip1_7_916">
<rect width="48" height="48" fill="white"/>
</clipPath>
</defs>
</svg>
