<svg width="48" height="48" viewBox="0 0 48 48" fill="none" xmlns="http://www.w3.org/2000/svg">
<g clip-path="url(#clip0_7_915)">
<g clip-path="url(#clip1_7_915)">
<path d="M33.0768 43.227V37.846H29.7693L34.9228 28.804V34.154H38.2303L33.0768 43.227ZM16.3268 43C15.9182 43 15.5757 42.8618 15.2993 42.5855C15.0227 42.3088 14.8843 41.9662 14.8843 41.5575V9.3345C14.8843 8.9385 15.0227 8.59917 15.2993 8.3165C15.5757 8.03383 15.9182 7.8925 16.3268 7.8925H20.3073V5H27.6923V7.8925H31.6768C32.0862 7.8925 32.4282 8.03383 32.7028 8.3165C32.9778 8.59917 33.1153 8.9385 33.1153 9.3345V25.177C32.71 25.2027 32.3183 25.2423 31.9403 25.296C31.562 25.35 31.1972 25.441 30.8458 25.569V10.1425H17.1538V40.7305H24.1768C24.4095 41.1612 24.6688 41.5643 24.9548 41.94C25.2412 42.316 25.5472 42.6693 25.8728 43H16.3268Z" fill="#FF0000"/>
</g>
</g>
<defs>
<clipPath id="clip0_7_915">
<rect width="48" height="48" fill="white"/>
</clipPath>
<clipPath id="clip1_7_915">
<rect width="48" height="48" fill="white"/>
</clipPath>
</defs>
</svg>
