<svg width="48" height="48" viewBox="0 0 48 48" fill="none" xmlns="http://www.w3.org/2000/svg">
<g clip-path="url(#clip0_7_914)">
<g clip-path="url(#clip1_7_914)">
<path d="M4.854 26.804L3 25.446L11.996 10.9845L18.054 18.0925L26.054 5.096L32.1115 14.1655L39.146 3L40.9305 4.327L32.1425 18.3L26.1345 9.3305L18.377 21.9425L12.3 14.854L4.854 26.804ZM28.727 36.7305C30.3783 36.7305 31.7885 36.1562 32.9575 35.0075C34.1268 33.8585 34.7115 32.4585 34.7115 30.8075C34.7115 29.1358 34.132 27.7205 32.973 26.5615C31.8137 25.4025 30.3982 24.823 28.7265 24.823C27.0755 24.823 25.6757 25.411 24.527 26.587C23.3783 27.7627 22.804 29.1697 22.804 30.808C22.804 32.459 23.3783 33.8588 24.527 35.0075C25.676 36.1562 27.076 36.7305 28.727 36.7305ZM39.35 43L33.6925 37.342C32.9975 37.855 32.2347 38.2595 31.404 38.5555C30.573 38.8518 29.6807 39 28.727 39C26.4443 39 24.5082 38.2057 22.9185 36.617C21.3292 35.028 20.5345 33.0927 20.5345 30.811C20.5345 28.542 21.329 26.5987 22.918 24.981C24.5067 23.363 26.4418 22.554 28.7235 22.554C31.0258 22.554 32.9777 23.357 34.579 24.963C36.18 26.569 36.9805 28.5172 36.9805 30.8075C36.9805 31.7615 36.8325 32.657 36.5365 33.494C36.2402 34.3313 35.8253 35.0975 35.292 35.7925L40.9305 41.419L39.35 43Z" fill="#FF0000"/>
</g>
</g>
<defs>
<clipPath id="clip0_7_914">
<rect width="48" height="48" fill="white"/>
</clipPath>
<clipPath id="clip1_7_914">
<rect width="48" height="48" fill="white"/>
</clipPath>
</defs>
</svg>
