<svg width="48" height="48" viewBox="0 0 48 48" fill="none" xmlns="http://www.w3.org/2000/svg">
<g clip-path="url(#clip0_7_912)">
<g clip-path="url(#clip1_7_912)">
<path d="M4.50012 37.5001V35.2001H43.5001V37.5001H4.50012ZM5.90012 25.0306L4.26561 24.1426L6.30412 20.6461H2.30762V18.8196H6.30412L4.26561 15.3616L5.90012 14.4541L7.85761 17.8811L9.81562 14.4541L11.4306 15.3616L9.41161 18.8196H13.4076V20.6461H9.41161L11.4306 24.1426L9.81562 25.0306L7.85761 21.5846L5.90012 25.0306ZM22.0426 25.0306L20.4076 24.0616L22.4461 20.5846H18.4501V18.7386H22.4461L20.4076 15.2811L22.0426 14.3926L24.0001 17.8001L25.9576 14.3926L27.5926 15.2811L25.5541 18.7386H29.5501V20.5846H25.5541L27.5926 24.0616L25.9576 25.0306L24.0001 21.5846L22.0426 25.0306ZM38.1846 25.0306L36.5696 24.0616L38.5886 20.5846H34.5926V18.7386H38.5886L36.5696 15.2811L38.1846 14.3926L40.1426 17.8001L42.1001 14.3926L43.7346 15.2811L41.6961 18.7386H45.6926V20.5846H41.6961L43.7346 24.0616L42.1001 25.0306L40.1426 21.5846L38.1846 25.0306Z" fill="#FF0000"/>
</g>
</g>
<defs>
<clipPath id="clip0_7_912">
<rect width="48" height="48" fill="white"/>
</clipPath>
<clipPath id="clip1_7_912">
<rect width="48" height="48" fill="white"/>
</clipPath>
</defs>
</svg>
