<svg width="111" height="28" viewBox="0 0 111 28" fill="none" xmlns="http://www.w3.org/2000/svg">
<g clip-path="url(#clip0_2_1029)">
<g clip-path="url(#clip1_2_1029)">
<g clip-path="url(#clip2_2_1029)">
<mask id="mask0_2_1029" style="mask-type:luminance" maskUnits="userSpaceOnUse" x="0" y="0" width="111" height="28">
<path d="M111 0.665161H0V27.3346H111V0.665161Z" fill="white"/>
</mask>
<g mask="url(#mask0_2_1029)">
<path d="M79.4224 22.7503C78.601 22.7503 77.8585 22.5701 77.2172 22.2025C76.5685 21.835 76.0856 21.3376 75.7612 20.7177V22.5269H72.9714V6.38147H75.8334V12.9766C76.1719 12.4144 76.6548 11.9603 77.2893 11.6143C77.9233 11.2683 78.6367 11.1025 79.4298 11.1025C80.4245 11.1025 81.2823 11.3404 82.0173 11.8089C82.7524 12.2846 83.3222 12.9477 83.7329 13.8127C84.1436 14.6776 84.3526 15.7083 84.3526 16.912C84.3526 18.1157 84.1436 19.1393 83.7329 20.0114C83.3222 20.8907 82.7456 21.561 82.0031 22.0368C81.2607 22.5125 80.4029 22.7431 79.4298 22.7431L79.4224 22.7503ZM78.6226 20.5736C79.4804 20.5736 80.1649 20.2636 80.6841 19.6438C81.2033 19.0239 81.4623 18.1157 81.4623 16.912C81.4623 15.7083 81.2033 14.7785 80.6841 14.1803C80.1649 13.5748 79.4804 13.2793 78.6226 13.2793C77.7648 13.2793 77.0803 13.582 76.5611 14.1803C76.0424 14.7857 75.7828 15.6939 75.7828 16.912C75.7828 18.1301 76.0424 19.0311 76.5611 19.6438C77.0803 20.2636 77.7648 20.5736 78.6226 20.5736Z" fill="white"/>
<path d="M90.66 22.7503C89.8521 22.7503 89.1318 22.5918 88.4973 22.2819C87.8627 21.9719 87.3657 21.5466 87.0124 21.0132C86.6596 20.4799 86.4722 19.8744 86.4722 19.2041C86.4722 18.3824 86.688 17.7265 87.1135 17.2508C87.539 16.7751 88.2377 16.4219 89.1966 16.2057C90.1549 15.9894 91.4456 15.8885 93.0668 15.8885H93.8672V15.4056C93.8672 14.6415 93.7013 14.0938 93.3628 13.755C93.0236 13.4162 92.4618 13.2505 91.6688 13.2505C91.0417 13.2505 90.4003 13.3441 89.7442 13.5388C89.0887 13.7334 88.4251 14.0217 87.7548 14.4181L86.9334 12.472C87.33 12.1981 87.798 11.9603 88.3388 11.7512C88.8796 11.5422 89.4488 11.3836 90.0544 11.2683C90.6599 11.153 91.2217 11.0953 91.7625 11.0953C93.3986 11.0953 94.6097 11.4701 95.4021 12.227C96.1951 12.9838 96.5917 14.1514 96.5917 15.7372V22.5125H93.9104V20.725C93.6508 21.352 93.2401 21.8422 92.6777 22.2026C92.1159 22.5629 91.4456 22.7431 90.6667 22.7431L90.66 22.7503ZM91.2581 20.7826C92.0074 20.7826 92.6271 20.5231 93.1248 20.0041C93.6218 19.4852 93.8672 18.8293 93.8672 18.0364V17.5319H93.089C91.6546 17.5319 90.6599 17.64 90.1049 17.8634C89.5499 18.0869 89.2687 18.4833 89.2687 19.0672C89.2687 19.5717 89.4414 19.9826 89.7948 20.2997C90.1481 20.6169 90.631 20.7826 91.2581 20.7826Z" fill="white"/>
<path d="M104.981 26.866C103.943 26.866 102.97 26.7507 102.062 26.5128C101.154 26.275 100.354 25.9146 99.6693 25.4244L100.491 23.4351C101.133 23.8603 101.817 24.1775 102.552 24.3865C103.287 24.5955 104.016 24.6964 104.751 24.6964C106.798 24.6964 107.814 23.7089 107.814 21.7412V20.206C107.497 20.8331 107 21.3304 106.337 21.6908C105.673 22.0584 104.938 22.2386 104.131 22.2386C103.122 22.2386 102.249 22.0079 101.5 21.5394C100.75 21.0709 100.174 20.4222 99.7631 19.5861C99.3524 18.75 99.1433 17.7698 99.1433 16.6598C99.1433 15.5498 99.3524 14.5695 99.7631 13.7406C100.174 12.9117 100.758 12.263 101.5 11.7945C102.249 11.326 103.122 11.0953 104.131 11.0953C104.967 11.0953 105.716 11.2827 106.372 11.6576C107.029 12.0324 107.511 12.5297 107.814 13.1568V11.326H110.603V21.3953C110.603 23.2116 110.121 24.5739 109.162 25.4893C108.203 26.4047 106.805 26.866 104.975 26.866H104.981ZM104.917 20.069C105.803 20.069 106.502 19.7663 107.021 19.1536C107.54 18.541 107.799 17.7121 107.799 16.6598C107.799 15.6074 107.54 14.7785 107.021 14.1731C106.502 13.5676 105.803 13.2721 104.917 13.2721C104.03 13.2721 103.331 13.5748 102.812 14.1731C102.293 14.7785 102.034 15.6002 102.034 16.6598C102.034 17.7193 102.293 18.541 102.812 19.1536C103.331 19.7663 104.03 20.069 104.917 20.069Z" fill="white"/>
<path d="M18.8196 12.3782L14.2642 13.7838C14.5165 14.6631 14.639 15.5785 14.6246 16.4939C14.6246 20.9916 12.3902 23.2188 7.92139 23.2188H4.58416V9.79064H9.26202V6.0354H0V27.0029H18.8916C18.8916 27.0029 19.0285 14.2306 18.8196 12.3782Z" fill="white"/>
<path d="M11.4243 5.56713V0.665826C11.4243 0.665826 19.8142 0.427969 22.5675 8.94756L17.2986 10.7567C17.2986 10.7567 16.5779 6.52579 11.4243 5.56713Z" fill="#E21518"/>
<path d="M32.7738 22.7143C30.9069 22.7863 29.1843 21.698 28.4491 19.9825C28.0166 19.0095 27.8076 17.9572 27.8292 16.8904C27.8004 15.8236 28.0166 14.7713 28.4491 13.7982C29.1987 12.0972 30.9142 11.0232 32.7738 11.0881C33.5305 11.0737 34.2729 11.2539 34.936 11.6143C35.5416 11.9315 36.0389 12.4144 36.3776 13.0054V6.38147H39.2607V22.4836H36.4281V20.6384C36.1181 21.28 35.6136 21.8133 34.9866 22.1521C34.309 22.5341 33.545 22.7287 32.7738 22.7143ZM33.5738 20.552C34.3667 20.5808 35.1235 20.2348 35.628 19.6294C36.1974 18.8365 36.4785 17.8706 36.4065 16.8976C36.4785 15.9246 36.2047 14.9515 35.628 14.1658C34.5757 13.027 32.8026 12.9622 31.6638 14.0145C31.6133 14.065 31.5628 14.1154 31.5124 14.1658C30.9429 14.9587 30.6691 15.9246 30.7411 16.8976C30.6763 17.8706 30.9429 18.8365 31.5124 19.6294C32.0242 20.2348 32.7809 20.5736 33.5738 20.5448V20.552Z" fill="white"/>
<path d="M47.687 22.7142C46.5553 22.7358 45.4381 22.4907 44.4218 21.9934C43.5352 21.5465 42.8001 20.8474 42.3099 19.9825C41.7982 19.0382 41.5531 17.9714 41.5892 16.8975C41.5675 15.838 41.8126 14.8 42.3099 13.863C42.7713 13.0125 43.4632 12.3061 44.2993 11.816C45.1786 11.3259 46.1733 11.0736 47.1824 11.0952C48.5951 11.0231 49.9646 11.5781 50.9377 12.6016C51.9107 13.7477 52.4008 15.2181 52.3216 16.7173V17.5606H44.3065C44.5155 19.5571 45.6616 20.5518 47.7302 20.5518C48.3645 20.5518 48.9988 20.4509 49.6042 20.2635C50.2313 20.0761 50.8079 19.7734 51.3197 19.3626L52.1197 21.2799C51.5215 21.7556 50.844 22.1159 50.1087 22.3321C49.3231 22.5844 48.5087 22.7142 47.687 22.7142ZM47.2761 13.0269C46.5193 12.9981 45.7841 13.2792 45.2435 13.8054C44.7029 14.3819 44.3714 15.1244 44.3065 15.91H49.9214C49.9214 15.1244 49.6547 14.3604 49.1573 13.7477C48.6672 13.2431 47.9752 12.9837 47.2761 13.0269Z" fill="white"/>
<path d="M58.7435 22.7143C57.6551 22.808 56.5811 22.4116 55.8099 21.6331C55.118 20.7177 54.7792 19.5861 54.8585 18.4401V6.38147H57.7416V18.3031C57.7416 19.6798 58.3254 20.3646 59.4787 20.3646C59.6445 20.3718 59.8175 20.3718 59.9832 20.3646C60.1418 20.3501 60.3004 20.3213 60.4589 20.2781L60.4157 22.5413C59.8679 22.671 59.3057 22.7287 58.7435 22.7143Z" fill="white"/>
<path d="M62.564 8.91832V6.12891H65.7638V8.91832H62.564ZM62.744 22.4834V11.3185H65.6269V22.4834H62.744Z" fill="white"/>
</g>
</g>
</g>
</g>
<defs>
<clipPath id="clip0_2_1029">
<rect width="111" height="27.752" fill="white" transform="translate(0 0.124023)"/>
</clipPath>
<clipPath id="clip1_2_1029">
<rect width="111" height="27.752" fill="white" transform="translate(0 0.124023)"/>
</clipPath>
<clipPath id="clip2_2_1029">
<rect width="111" height="27.75" fill="white" transform="translate(0 0.125)"/>
</clipPath>
</defs>
</svg>
