<svg width="111" height="40" viewBox="0 0 111 40" fill="none" xmlns="http://www.w3.org/2000/svg">
<g clip-path="url(#clip0_25_377)">
<mask id="mask0_25_377" style="mask-type:luminance" maskUnits="userSpaceOnUse" x="0" y="0" width="111" height="40">
<path d="M111 0H0V40H111V0Z" fill="white"/>
</mask>
<g mask="url(#mask0_25_377)">
<path d="M107 0.5H4C2.067 0.5 0.5 2.067 0.5 4V36C0.5 37.933 2.067 39.5 4 39.5H107C108.933 39.5 110.5 37.933 110.5 36V4C110.5 2.067 108.933 0.5 107 0.5Z" fill="#1A1C20" stroke="#393E45"/>
<path d="M45.7977 27.3645C47.6085 26.8977 48.8019 25.501 48.8019 23.6751C48.8019 21.4163 47.0061 19.8276 44.4875 19.8276H40V31.9839H42.0706V27.5151H43.5388L46.7501 31.9839H49.1822L45.7977 27.3608V27.3645ZM44.4875 21.725C45.7826 21.725 46.6786 22.5193 46.6786 23.6751C46.6786 24.8309 45.7826 25.6252 44.4875 25.6252H42.0706V21.7288H44.4875V21.725Z" fill="white"/>
<path d="M53.8446 32.1569C54.9326 32.1569 55.9341 31.5884 56.5025 30.6397L56.8978 31.9837H58.3811V23.0161H56.3971V28.2077C56.3971 29.4839 55.5501 30.3799 54.3943 30.3799C53.2385 30.3799 52.463 29.4839 52.463 28.2077V23.0161H50.479V28.4298C50.479 30.587 51.9284 32.1569 53.8446 32.1569Z" fill="white"/>
<path d="M64.7156 32.1563C67.0121 32.1563 68.9095 30.8462 68.9095 28.6739C68.9095 26.2419 66.9255 25.5342 65.2163 24.9469C63.8874 24.4989 62.7316 24.0847 62.7316 22.9967C62.7316 22.048 63.6125 21.5473 64.6478 21.5473C65.7358 21.5473 66.5114 22.1158 66.9443 23.0833L68.9133 22.7558C68.2921 20.8584 66.7222 19.6499 64.5801 19.6499C62.438 19.6499 60.6121 20.9261 60.6121 23.0984C60.6121 25.5492 62.5961 26.2193 64.3053 26.7878C65.6154 27.217 66.79 27.6311 66.79 28.7379C66.79 29.7055 65.909 30.2551 64.7344 30.2551C63.3867 30.2551 62.6638 29.6189 62.0238 28.4631L60.021 28.8095C60.6083 30.8612 62.4718 32.1563 64.7156 32.1563Z" fill="white"/>
<path d="M74.3077 30.2599C73.6338 30.2599 73.3063 29.9324 73.3063 29.2585V24.7408H75.983V23.0166H73.3063V20.4302H71.823L71.3223 23.0166H69.854V24.7408H71.3223V29.2585C71.3223 31.0166 72.3387 31.9842 74.3077 31.9842H75.983L76.1562 30.2599H74.3077Z" fill="white"/>
<path d="M81.8256 32.1572C84.6378 32.1572 86.6218 30.2259 86.6218 27.5002C86.6218 24.7746 84.6378 22.8433 81.8256 22.8433C79.0133 22.8433 77.0293 24.7746 77.0293 27.5002C77.0293 30.2259 79.0133 32.1572 81.8256 32.1572ZM81.8256 30.3464C80.203 30.3464 79.0999 29.1906 79.0999 27.5002C79.0999 25.8099 80.203 24.6541 81.8256 24.6541C83.4482 24.6541 84.5512 25.8099 84.5512 27.5002C84.5512 29.1906 83.4482 30.3464 81.8256 30.3464Z" fill="white"/>
<path d="M90.3341 31.9837V26.6905C90.3341 25.5536 90.8875 24.9136 92.096 24.9136H93.2367L93.0635 23.0161H92.6833C91.6292 23.0161 90.8197 23.3098 90.2136 24.3112L89.8334 23.0161H88.3501V31.9837H90.3341Z" fill="white"/>
<path d="M103 27.3977C103 24.8114 101.069 22.8462 98.3395 22.8462C95.6101 22.8462 93.6787 24.7963 93.6787 27.5032C93.6787 30.21 95.6101 32.1601 98.3395 32.1601C100.203 32.1601 101.965 31.2792 102.635 29.5737L100.771 29.2613C100.338 29.9013 99.5103 30.3493 98.4599 30.3493C96.9428 30.3493 95.9413 29.4194 95.7493 28.0377H102.962C102.981 27.8495 102.996 27.6424 102.996 27.3977M98.3357 24.5704C99.5781 24.5704 100.512 25.3648 100.839 26.4829H95.8698C96.1973 25.3271 97.131 24.5704 98.3395 24.5704" fill="white"/>
<path d="M9.68808 30.3141C11.3762 32 14.0898 32 19.5209 32H20.4791C25.9102 32 28.6238 32 30.3119 30.3141C32 28.6282 32 25.912 32 20.4796V19.5204C32 14.088 32 11.3718 30.3119 9.68592C28.6238 8 25.9064 8 20.4791 8H19.5209C14.0898 8 11.3724 8 9.68808 9.68592C8 11.3756 8 14.0918 8 19.5204V20.4796C8 25.912 8 28.6282 9.68808 30.3141Z" fill="#0077FF"/>
<path fill-rule="evenodd" clip-rule="evenodd" d="M26.5283 23.9528L24.9076 23.5482C24.713 23.492 24.5745 23.3159 24.567 23.1136L24.3649 17.1454C24.305 16.3549 23.7211 15.7255 23.1072 15.5419C23.0735 15.5307 23.0361 15.5419 23.0174 15.5756C22.9949 15.6056 23.0062 15.6468 23.0324 15.6693C23.1821 15.7854 23.6013 16.1676 23.6013 16.827V24.6309C23.6013 25.3839 22.8864 25.9384 22.1528 25.7548L20.5058 25.3427C20.3224 25.279 20.1952 25.1104 20.1914 24.9119L19.9893 18.9437C19.9294 18.1532 19.3455 17.5238 18.7317 17.3402C18.698 17.329 18.6606 17.3402 18.6418 17.3739C18.6194 17.4039 18.6306 17.4451 18.6568 17.4676C18.8065 17.5837 19.2257 17.9659 19.2257 18.6253V25.1292V26.4292C19.2257 27.1822 18.5146 27.7367 17.781 27.5531L13.1322 26.3917C12.4846 26.2306 12.0317 25.6499 12.0317 24.9868V17.1716C12.0317 16.4186 12.7429 15.8641 13.4765 16.0477L16.4073 16.7783V15.3696C16.4073 14.6165 17.1184 14.062 17.8521 14.2456L20.7828 14.9762V13.5675C20.7828 12.8145 21.494 12.26 22.2276 12.4436L26.8764 13.605C27.5239 13.7661 27.9768 14.3468 27.9768 15.0099V22.8251C27.9768 23.5781 27.2657 24.1326 26.532 23.949" fill="white"/>
<path d="M42.8293 14.0859C42.261 14.0859 41.7501 13.9539 41.2966 13.6898C40.8432 13.42 40.4873 13.0469 40.2289 12.5705C39.9764 12.094 39.8501 11.5573 39.8501 10.9603C39.8501 10.3633 39.9764 9.82942 40.2289 9.35871C40.4873 8.88226 40.8403 8.51201 41.288 8.24795C41.7415 7.97816 42.2524 7.84326 42.8207 7.84326C43.4349 7.84326 43.9803 7.99825 44.4567 8.30823C44.9389 8.61247 45.2833 9.02577 45.49 9.54815L44.6117 9.68592C44.451 9.36445 44.2128 9.11475 43.897 8.9368C43.5871 8.75311 43.2369 8.66126 42.8465 8.66126C42.4447 8.66126 42.0859 8.75885 41.7702 8.95402C41.4602 9.14919 41.2163 9.42186 41.0383 9.77202C40.8661 10.1165 40.78 10.5125 40.78 10.9603C40.78 11.4138 40.8661 11.8156 41.0383 12.1658C41.2163 12.5102 41.4631 12.78 41.7788 12.9752C42.0946 13.1703 42.4562 13.2679 42.8638 13.2679C43.2656 13.2679 43.6215 13.1761 43.9315 12.9924C44.2472 12.803 44.4883 12.5389 44.6548 12.2002L45.533 12.338C45.3149 12.8718 44.9619 13.2966 44.4739 13.6123C43.986 13.9281 43.4378 14.0859 42.8293 14.0859Z" fill="white"/>
<path d="M50.118 14H49.0073L47.3627 12.1574H47.0958V14H46.252V9.54834H47.0958V11.348H47.354L48.9298 9.54834H49.9459L48.0343 11.701L50.118 14Z" fill="white"/>
<path d="M52.2112 9.4624C52.7622 9.4624 53.1956 9.64322 53.5114 10.0048C53.8328 10.3607 53.9935 10.8601 53.9935 11.5031V14.0001H53.3908L53.1928 13.3027C53.0493 13.5265 52.857 13.7131 52.6159 13.8624C52.3748 14.0116 52.0849 14.0862 51.7462 14.0862C51.4477 14.0862 51.1808 14.026 50.9454 13.9054C50.7101 13.7849 50.5264 13.6184 50.3943 13.406C50.2623 13.1879 50.1963 12.9439 50.1963 12.6741C50.1963 12.255 50.3628 11.9192 50.6957 11.6667C51.0286 11.4141 51.5108 11.2878 52.1423 11.2878H53.1497C53.1267 10.9376 53.0292 10.6678 52.857 10.4784C52.6847 10.2832 52.4551 10.1856 52.1681 10.1856C51.95 10.1856 51.7577 10.2373 51.5912 10.3406C51.4247 10.444 51.2984 10.5789 51.2123 10.7453L50.4288 10.6162C50.5436 10.2603 50.7646 9.97903 51.0918 9.77238C51.419 9.56573 51.7921 9.4624 52.2112 9.4624ZM51.927 13.3716C52.2887 13.3716 52.5814 13.2539 52.8053 13.0185C53.0349 12.7774 53.1497 12.4474 53.1497 12.0283V11.9766H52.1681C51.4219 11.9766 51.0487 12.2005 51.0487 12.6483C51.0487 12.8664 51.1291 13.0415 51.2898 13.1735C51.4506 13.3055 51.663 13.3716 51.927 13.3716Z" fill="white"/>
<path d="M57.3861 12.3812C57.2484 12.4444 57.0848 12.4932 56.8953 12.5276C56.7059 12.5621 56.5193 12.5793 56.3357 12.5793C55.8018 12.5793 55.3914 12.43 55.1043 12.1315C54.8173 11.833 54.6738 11.4111 54.6738 10.8658V9.54834H55.5176V10.8658C55.5176 11.503 55.8248 11.8216 56.439 11.8216C56.8121 11.8216 57.1278 11.7555 57.3861 11.6235V9.54834H58.23V14H57.3861V12.3812Z" fill="white"/>
<path d="M61.0612 9.4624C61.6123 9.4624 62.0457 9.64322 62.3614 10.0048C62.6829 10.3607 62.8436 10.8601 62.8436 11.5031V14.0001H62.2409L62.0428 13.3027C61.8993 13.5265 61.707 13.7131 61.4659 13.8624C61.2248 14.0116 60.9349 14.0862 60.5963 14.0862C60.2978 14.0862 60.0308 14.026 59.7955 13.9054C59.5601 13.7849 59.3764 13.6184 59.2444 13.406C59.1124 13.1879 59.0464 12.9439 59.0464 12.6741C59.0464 12.255 59.2128 11.9192 59.5458 11.6667C59.8787 11.4141 60.3609 11.2878 60.9923 11.2878H61.9998C61.9768 10.9376 61.8792 10.6678 61.707 10.4784C61.5348 10.2832 61.3052 10.1856 61.0182 10.1856C60.8 10.1856 60.6077 10.2373 60.4413 10.3406C60.2748 10.444 60.1485 10.5789 60.0624 10.7453L59.2788 10.6162C59.3937 10.2603 59.6147 9.97903 59.9419 9.77238C60.2691 9.56573 60.6422 9.4624 61.0612 9.4624ZM60.7771 13.3716C61.1387 13.3716 61.4315 13.2539 61.6554 13.0185C61.885 12.7774 61.9998 12.4474 61.9998 12.0283V11.9766H61.0182C60.2719 11.9766 59.8988 12.2005 59.8988 12.6483C59.8988 12.8664 59.9792 13.0415 60.1399 13.1735C60.3006 13.3055 60.513 13.3716 60.7771 13.3716Z" fill="white"/>
<path d="M65.1172 14H63.8687V9.54837H64.6867V13.0529H64.8159L66.6155 9.54837H67.864V14H67.046V10.5041H66.9168L65.1172 14ZM65.875 8.97146C65.5018 8.97146 65.189 8.87387 64.9364 8.6787C64.6896 8.47779 64.5432 8.17929 64.4973 7.7832H65.1861C65.2148 7.96689 65.2866 8.10753 65.4014 8.20512C65.5219 8.29697 65.6798 8.34289 65.875 8.34289C66.0701 8.34289 66.2251 8.29697 66.3399 8.20512C66.4605 8.10753 66.5322 7.96689 66.5552 7.7832H67.2527C67.201 8.17929 67.0489 8.47779 66.7963 8.6787C66.5495 8.87387 66.2423 8.97146 65.875 8.97146Z" fill="white"/>
<path d="M70.8831 14H70.0393V10.3233H68.498V9.54834H72.4244V10.3233H70.8831V14Z" fill="white"/>
<path d="M77.2091 11.7442C77.2091 11.859 77.2063 11.9479 77.2005 12.0111H73.5238C73.5697 12.4072 73.7247 12.7229 73.9888 12.9582C74.2529 13.1936 74.5887 13.3113 74.9962 13.3113C75.2775 13.3113 75.5272 13.2567 75.7453 13.1477C75.9692 13.0329 76.1386 12.8836 76.2534 12.6999L77.0455 12.8291C76.8733 13.2309 76.5949 13.5409 76.2103 13.759C75.8315 13.9772 75.4095 14.0862 74.9446 14.0862C74.5026 14.0862 74.1065 13.9886 73.7563 13.7935C73.4061 13.5926 73.1335 13.317 72.9383 12.9669C72.7431 12.6167 72.6455 12.2206 72.6455 11.7786C72.6455 11.3309 72.7431 10.9319 72.9383 10.5817C73.1335 10.2316 73.4033 9.95894 73.7477 9.76377C74.0921 9.56286 74.4853 9.4624 74.9273 9.4624C75.3636 9.4624 75.754 9.56286 76.0984 9.76377C76.4485 9.95894 76.7212 10.2316 76.9164 10.5817C77.1116 10.9262 77.2091 11.3136 77.2091 11.7442ZM74.9273 10.2115C74.5887 10.2115 74.2959 10.3119 74.0491 10.5128C73.808 10.7138 73.6472 10.9836 73.5669 11.3222H76.2878C76.2132 10.9893 76.0525 10.7224 75.8056 10.5215C75.5645 10.3148 75.2718 10.2115 74.9273 10.2115Z" fill="white"/>
<path d="M81.0019 14H79.7534V9.54834H80.5714V13.0529H80.7005L82.5001 9.54834H83.7486V14H82.9306V10.5041H82.8015L81.0019 14Z" fill="white"/>
<path d="M87.2501 11.7269C87.4854 11.7958 87.6806 11.9221 87.8356 12.1058C87.9906 12.2838 88.0681 12.5048 88.0681 12.7688C88.0681 13.0156 87.9963 13.2395 87.8528 13.4404C87.7093 13.6356 87.5027 13.7935 87.2329 13.914C86.9688 14.0288 86.6617 14.0862 86.3115 14.0862C85.8408 14.0862 85.4361 13.9772 85.0974 13.759C84.7588 13.5352 84.5349 13.2367 84.4258 12.8635L85.2094 12.7344C85.3988 13.1477 85.7633 13.3543 86.3029 13.3543C86.6014 13.3543 86.8282 13.2998 86.9832 13.1907C87.1439 13.0759 87.2242 12.9181 87.2242 12.7171C87.2242 12.5392 87.1496 12.3957 87.0004 12.2866C86.8569 12.1776 86.6244 12.123 86.3029 12.123H85.7174V11.3825H86.3029C86.5785 11.3825 86.788 11.3309 86.9315 11.2275C87.0807 11.1242 87.1554 10.9864 87.1554 10.8142C87.1554 10.6305 87.075 10.4813 86.9143 10.3665C86.7593 10.2517 86.567 10.1943 86.3374 10.1943C86.1135 10.1943 85.9126 10.2488 85.7346 10.3579C85.5567 10.4669 85.4218 10.6162 85.3299 10.8056L84.5464 10.6678C84.6784 10.2832 84.9051 9.98764 85.2266 9.78099C85.5538 9.5686 85.9327 9.4624 86.3632 9.4624C86.6732 9.4624 86.9516 9.51693 87.1984 9.626C87.451 9.73507 87.6462 9.88719 87.7839 10.0823C87.9274 10.2775 87.9992 10.4956 87.9992 10.7367C87.9992 10.9836 87.9303 11.1931 87.7925 11.3653C87.6548 11.5375 87.474 11.6581 87.2501 11.7269Z" fill="white"/>
</g>
</g>
<defs>
<clipPath id="clip0_25_377">
<rect width="111" height="40" fill="white"/>
</clipPath>
</defs>
</svg>
