<svg width="212" height="212" viewBox="0 0 212 212" fill="none" xmlns="http://www.w3.org/2000/svg">
<path d="M58.3823 7.52356V2.55804C58.3823 1.1453 59.5276 4.89652e-05 60.9403 4.89652e-05H63.3478C64.7606 4.89652e-05 65.9058 1.1453 65.9058 2.55804V7.52356L58.3823 7.52356Z" fill="white"/>
<path d="M72.978 2.15172V5.37931C72.978 6.56802 73.941 7.52351 75.1298 7.52351H78.3573C79.5536 7.52351 80.5091 6.5605 80.5091 5.37179V2.15172C80.5015 0.955486 79.5385 0 78.3498 0H75.1298C73.941 0 72.978 0.963009 72.978 2.15172Z" fill="white"/>
<path d="M95.0972 7.52356L87.5737 7.52356V2.55804C87.5737 1.1453 88.7189 4.89652e-05 90.1317 4.89652e-05L95.0972 4.89652e-05V7.52356Z" fill="white"/>
<path d="M94.8716 7.52356V2.55804C94.8716 1.1453 96.0168 4.89652e-05 97.4296 4.89652e-05H99.8371C101.25 4.89652e-05 102.395 1.1453 102.395 2.55804V7.52356L94.8716 7.52356Z" fill="white"/>
<path d="M129.292 7.37308V7.52355H131.586V5.22888H131.436C131.436 6.4176 130.473 7.37308 129.292 7.37308Z" fill="white"/>
<path d="M131.361 7.52356V2.55804C131.361 1.1453 132.506 4.89652e-05 133.919 4.89652e-05H136.326C137.739 4.89652e-05 138.884 1.1453 138.884 2.55804V7.52356L131.361 7.52356Z" fill="white"/>
<path d="M145.956 2.15172V5.37931C145.956 6.56802 146.919 7.52351 148.108 7.52351H151.335C152.532 7.52351 153.487 6.5605 153.487 5.37179V2.15172C153.48 0.955486 152.517 0 151.328 0H148.108C146.919 0 145.956 0.963009 145.956 2.15172Z" fill="white"/>
<path d="M65.9058 7.29785H58.3823V14.8214H65.9058V7.29785Z" fill="white"/>
<path d="M65.6802 14.8214V9.85589C65.6802 8.44315 66.8254 7.2979 68.2382 7.2979H70.6457C72.0584 7.2979 73.2037 8.44315 73.2037 9.85589V14.8214H65.6802Z" fill="white"/>
<path d="M85.5046 14.6708V14.8213H87.7993V12.5266H87.6488C87.6488 13.7153 86.6858 14.6708 85.5046 14.6708Z" fill="white"/>
<path d="M95.0972 7.29785H87.5737V14.8214H95.0972V7.29785Z" fill="white"/>
<path d="M100.1 14.6708V14.8213H102.395V12.5266H102.245C102.245 13.7153 101.282 14.6708 100.1 14.6708Z" fill="white"/>
<path d="M109.693 14.8214L102.169 14.8214V9.85589C102.169 8.44315 103.314 7.2979 104.727 7.2979L109.693 7.2979V14.8214Z" fill="white"/>
<path d="M109.467 14.8214V7.2979H114.433C115.845 7.2979 116.991 8.44315 116.991 9.85589V14.8214H109.467Z" fill="white"/>
<path d="M131.586 14.8214H126.621C125.208 14.8214 124.063 13.6762 124.063 12.2634V9.85589C124.063 8.44315 125.208 7.2979 126.621 7.2979L131.586 7.2979V14.8214Z" fill="white"/>
<path d="M138.884 7.29785H131.361V14.8214H138.884V7.29785Z" fill="white"/>
<path d="M138.658 14.8214V7.2979H143.624C145.036 7.2979 146.182 8.44315 146.182 9.85589V14.8214H138.658Z" fill="white"/>
<path d="M65.9058 14.5956V19.5611C65.9058 20.9738 64.7605 22.1191 63.3478 22.1191H60.9402C59.5275 22.1191 58.3823 20.9738 58.3823 19.5611V14.5956H65.9058Z" fill="white"/>
<path d="M70.9092 21.9687V22.1191H73.2039V19.8245H73.0534C73.0534 21.0132 72.0904 21.9687 70.9092 21.9687Z" fill="white"/>
<path d="M80.5015 22.1191H72.978V17.1536C72.978 15.7409 74.1232 14.5956 75.5359 14.5956H80.5015V22.1191Z" fill="white"/>
<path d="M87.7994 14.5956H80.2759V22.1191H87.7994V14.5956Z" fill="white"/>
<path d="M95.0972 14.5956H87.5737V22.1191H95.0972V14.5956Z" fill="white"/>
<path d="M102.395 14.5956H94.8716V22.1191H102.395V14.5956Z" fill="white"/>
<path d="M109.693 14.5956H102.169V22.1191H109.693V14.5956Z" fill="white"/>
<path d="M116.991 14.5956H109.467V22.1191H116.991V14.5956Z" fill="white"/>
<path d="M116.765 22.1191V17.1536C116.765 15.7409 117.91 14.5956 119.323 14.5956H121.73C123.143 14.5956 124.288 15.7409 124.288 17.1536V22.1191H116.765Z" fill="white"/>
<path d="M146.182 14.5956H138.658V22.1191H146.182V14.5956Z" fill="white"/>
<path d="M145.956 22.1191V17.1536C145.956 15.7409 147.101 14.5956 148.514 14.5956H150.922C152.334 14.5956 153.48 15.7409 153.48 17.1536V22.1191H145.956Z" fill="white"/>
<path d="M73.2036 29.417H65.6801V24.4515C65.6801 23.0387 66.8254 21.8935 68.2381 21.8935H73.2036V29.417Z" fill="white"/>
<path d="M72.978 21.8934H80.5015V26.8589C80.5015 28.2717 79.3563 29.4169 77.9435 29.4169H72.978V21.8934Z" fill="white"/>
<path d="M95.0972 21.8934H87.5737V29.4169H95.0972V21.8934Z" fill="white"/>
<path d="M102.395 21.8934H94.8716V29.4169H102.395V21.8934Z" fill="white"/>
<path d="M109.693 21.8934H102.169V29.4169H109.693V21.8934Z" fill="white"/>
<path d="M109.467 21.8934H116.991V26.8589C116.991 28.2717 115.845 29.4169 114.433 29.4169H109.467V21.8934Z" fill="white"/>
<path d="M124.063 24.0452V27.2727C124.063 28.4615 125.026 29.4169 126.214 29.4169H129.442C130.638 29.4169 131.594 28.4539 131.594 27.2652V24.0452C131.586 22.8489 130.623 21.8934 129.435 21.8934H126.214C125.026 21.8934 124.063 22.8564 124.063 24.0452Z" fill="white"/>
<path d="M136.589 29.2665V29.417H138.884V27.1223H138.734C138.734 28.311 137.771 29.2665 136.589 29.2665Z" fill="white"/>
<path d="M146.182 21.8934H138.658V29.4169H146.182V21.8934Z" fill="white"/>
<path d="M73.2036 29.1912V34.1567C73.2036 35.5694 72.0584 36.7147 70.6456 36.7147H68.2381C66.8254 36.7147 65.6801 35.5694 65.6801 34.1567V29.1912H73.2036Z" fill="white"/>
<path d="M87.7993 36.7147H82.8338C81.4211 36.7147 80.2758 35.5695 80.2758 34.1567V31.7492C80.2758 30.3365 81.4211 29.1912 82.8338 29.1912H87.7993V36.7147Z" fill="white"/>
<path d="M95.0972 29.1912H87.5737V36.7147H95.0972V29.1912Z" fill="white"/>
<path d="M109.693 29.1912V34.1567C109.693 35.5694 108.547 36.7147 107.135 36.7147H104.727C103.314 36.7147 102.169 35.5694 102.169 34.1567V29.1912H109.693Z" fill="white"/>
<path d="M114.696 36.5642V36.7147H116.99V34.42H116.84C116.84 35.6088 115.877 36.5642 114.696 36.5642Z" fill="white"/>
<path d="M116.765 36.7147V31.7492C116.765 30.3365 117.91 29.1912 119.323 29.1912H121.73C123.143 29.1912 124.288 30.3365 124.288 31.7492V36.7147H116.765Z" fill="white"/>
<path d="M138.884 36.7147H131.361V31.7492C131.361 30.3365 132.506 29.1912 133.919 29.1912H138.884V36.7147Z" fill="white"/>
<path d="M146.182 29.1912H138.658V36.7147H146.182V29.1912Z" fill="white"/>
<path d="M145.956 36.7147V31.7492C145.956 30.3365 147.101 29.1912 148.514 29.1912H150.922C152.334 29.1912 153.48 30.3365 153.48 31.7492V36.7147H145.956Z" fill="white"/>
<path d="M58.3823 44.0126V39.0471C58.3823 37.6343 59.5276 36.4891 60.9403 36.4891H63.3478C64.7606 36.4891 65.9058 37.6343 65.9058 39.0471V44.0126H58.3823Z" fill="white"/>
<path d="M95.0972 36.489H87.5737V44.0125H95.0972V36.489Z" fill="white"/>
<path d="M94.8716 44.0126V39.0471C94.8716 37.6343 96.0168 36.4891 97.4296 36.4891H99.8371C101.25 36.4891 102.395 37.6343 102.395 39.0471V44.0126H94.8716Z" fill="white"/>
<path d="M116.99 44.0126H112.025C110.612 44.0126 109.467 42.8673 109.467 41.4546V39.0471C109.467 37.6343 110.612 36.4891 112.025 36.4891H116.99V44.0126Z" fill="white"/>
<path d="M124.288 36.489H116.765V44.0125H124.288V36.489Z" fill="white"/>
<path d="M138.884 36.489H131.361V44.0125H138.884V36.489Z" fill="white"/>
<path d="M65.9058 43.7869H58.3823V51.3104H65.9058V43.7869Z" fill="white"/>
<path d="M72.978 45.9386V49.1662C72.978 50.3549 73.941 51.3104 75.1298 51.3104H78.3573C79.5536 51.3104 80.5091 50.3474 80.5091 49.1587V45.9386C80.5015 44.7424 79.5385 43.7869 78.3498 43.7869H75.1298C73.941 43.7869 72.978 44.7499 72.978 45.9386Z" fill="white"/>
<path d="M95.0972 43.7869V48.7524C95.0972 50.1651 93.9519 51.3104 92.5392 51.3104H90.1317C88.7189 51.3104 87.5737 50.1651 87.5737 48.7524V43.7869H95.0972Z" fill="white"/>
<path d="M102.169 45.9386V49.1662C102.169 50.3549 103.132 51.3104 104.321 51.3104H107.548C108.745 51.3104 109.7 50.3474 109.7 49.1587V45.9386C109.693 44.7424 108.73 43.7869 107.541 43.7869H104.321C103.132 43.7869 102.169 44.7499 102.169 45.9386Z" fill="white"/>
<path d="M124.288 43.7869V48.7524C124.288 50.1651 123.143 51.3104 121.73 51.3104H119.323C117.91 51.3104 116.765 50.1651 116.765 48.7524V43.7869H124.288Z" fill="white"/>
<path d="M138.884 43.7869V48.7524C138.884 50.1651 137.739 51.3104 136.326 51.3104H133.919C132.506 51.3104 131.361 50.1651 131.361 48.7524V43.7869H138.884Z" fill="white"/>
<path d="M145.956 51.3104V46.3449C145.956 44.9322 147.101 43.7869 148.514 43.7869H150.922C152.334 43.7869 153.48 44.9322 153.48 46.3449V51.3104H145.956Z" fill="white"/>
<path d="M65.9058 51.0846H58.3823V58.6081H65.9058V51.0846Z" fill="white"/>
<path d="M65.6802 58.6082V51.0846H70.6457C72.0584 51.0846 73.2037 52.2299 73.2037 53.6426V58.6082H65.6802Z" fill="white"/>
<path d="M109.467 53.2363V56.4639C109.467 57.6526 110.43 58.6081 111.619 58.6081H114.846C116.043 58.6081 116.998 57.6451 116.998 56.4564V53.2363C116.991 52.0401 116.028 51.0846 114.839 51.0846H111.619C110.43 51.0846 109.467 52.0476 109.467 53.2363Z" fill="white"/>
<path d="M153.479 51.0846V56.0501C153.479 57.4629 152.334 58.6081 150.921 58.6081H148.514C147.101 58.6081 145.956 57.4629 145.956 56.0501V51.0846H153.479Z" fill="white"/>
<path d="M22.1191 65.906H17.1536C15.7409 65.906 14.5956 64.7608 14.5956 63.348V60.9405C14.5956 59.5277 15.7409 58.3825 17.1536 58.3825H22.1191V65.906Z" fill="white"/>
<path d="M29.4168 58.3824H21.8933V65.906H29.4168V58.3824Z" fill="white"/>
<path d="M29.1912 65.906V58.3825H34.1567C35.5694 58.3825 36.7147 59.5277 36.7147 60.9405V65.906H29.1912Z" fill="white"/>
<path d="M43.7869 60.5342V63.7618C43.7869 64.9505 44.7499 65.906 45.9386 65.906H49.1662C50.3624 65.906 51.3179 64.9429 51.3179 63.7542V60.5342C51.3104 59.3379 50.3474 58.3824 49.1587 58.3824H45.9386C44.7499 58.3824 43.7869 59.3455 43.7869 60.5342Z" fill="white"/>
<path d="M65.9058 58.3824V65.906H60.9402C59.5275 65.906 58.3823 64.7607 58.3823 63.348V58.3824H65.9058Z" fill="white"/>
<path d="M73.2037 58.3824H65.6802V65.906H73.2037V58.3824Z" fill="white"/>
<path d="M80.5015 58.3824H72.978V65.906H80.5015V58.3824Z" fill="white"/>
<path d="M80.2759 65.906V58.3825H85.2414C86.6541 58.3825 87.7994 59.5277 87.7994 60.9405V65.906H80.2759Z" fill="white"/>
<path d="M138.884 65.906H133.919C132.506 65.906 131.361 64.7608 131.361 63.348V60.9405C131.361 59.5277 132.506 58.3825 133.919 58.3825H138.884V65.906Z" fill="white"/>
<path d="M138.658 65.906V60.9405C138.658 59.5277 139.803 58.3825 141.216 58.3825H143.624C145.036 58.3825 146.182 59.5277 146.182 60.9405V65.906H138.658Z" fill="white"/>
<path d="M160.777 65.906H155.812C154.399 65.906 153.254 64.7608 153.254 63.348V60.9405C153.254 59.5277 154.399 58.3825 155.812 58.3825H160.777V65.906Z" fill="white"/>
<path d="M168.075 58.3824H160.552V65.906H168.075V58.3824Z" fill="white"/>
<path d="M167.85 65.906V58.3825H172.815C174.228 58.3825 175.373 59.5277 175.373 60.9405V65.906H167.85Z" fill="white"/>
<path d="M197.266 65.906H192.301C190.888 65.906 189.743 64.7608 189.743 63.348V60.9405C189.743 59.5277 190.888 58.3825 192.301 58.3825H197.266V65.906Z" fill="white"/>
<path d="M204.564 58.3824H197.041V65.906H204.564V58.3824Z" fill="white"/>
<path d="M204.339 65.906V58.3825H209.304C210.717 58.3825 211.862 59.5277 211.862 60.9405V65.906H204.339Z" fill="white"/>
<path d="M5.22876 73.0533V73.2037H7.52343V70.9091H7.37296C7.37296 72.0978 6.40995 73.0533 5.22876 73.0533Z" fill="white"/>
<path d="M7.29785 73.2039V68.2383C7.29785 66.8256 8.4431 65.6803 9.85585 65.6803H12.2634C13.6761 65.6803 14.8214 66.8256 14.8214 68.2383V73.2039H7.29785Z" fill="white"/>
<path d="M29.4167 65.6803V73.2038H24.4512C23.0385 73.2038 21.8932 72.0586 21.8932 70.6458V65.6803H29.4167Z" fill="white"/>
<path d="M29.1912 65.6803H36.7147V70.6458C36.7147 72.0586 35.5694 73.2038 34.1567 73.2038H29.1912V65.6803Z" fill="white"/>
<path d="M80.5015 65.6803H72.978V73.2038H80.5015V65.6803Z" fill="white"/>
<path d="M87.7994 65.6803H80.2759V73.2038H87.7994V65.6803Z" fill="white"/>
<path d="M87.5737 73.2039V68.2383C87.5737 66.8256 88.719 65.6803 90.1317 65.6803H92.5392C93.952 65.6803 95.0972 66.8256 95.0972 68.2383V73.2039H87.5737Z" fill="white"/>
<path d="M116.99 73.2039H109.467V68.2383C109.467 66.8256 110.612 65.6803 112.025 65.6803H116.99V73.2039Z" fill="white"/>
<path d="M116.765 73.2039V65.6803H121.73C123.143 65.6803 124.288 66.8256 124.288 68.2383V73.2039H116.765Z" fill="white"/>
<path d="M175.373 65.6803V73.2038H170.408C168.995 73.2038 167.85 72.0586 167.85 70.6458V65.6803H175.373Z" fill="white"/>
<path d="M175.147 73.2039V68.2383C175.147 66.8256 176.293 65.6803 177.705 65.6803H180.113C181.526 65.6803 182.671 66.8256 182.671 68.2383V73.2039H175.147Z" fill="white"/>
<path d="M211.862 65.6803V70.6458C211.862 72.0586 210.717 73.2038 209.304 73.2038H206.897C205.484 73.2038 204.339 72.0586 204.339 70.6458V65.6803H211.862Z" fill="white"/>
<path d="M7.52344 80.5016H-7.31051e-05L-7.31051e-05 75.5361C-7.31051e-05 74.1233 1.14518 72.9781 2.55792 72.9781H7.52344L7.52344 80.5016Z" fill="white"/>
<path d="M14.8214 72.978H7.29785V80.5015H14.8214V72.978Z" fill="white"/>
<path d="M14.5957 80.5016V75.5361C14.5957 74.1233 15.741 72.9781 17.1537 72.9781H19.5612C20.974 72.9781 22.1192 74.1233 22.1192 75.5361V80.5016H14.5957Z" fill="white"/>
<path d="M44.0125 80.5016H36.4889V75.5361C36.4889 74.1233 37.6342 72.9781 39.0469 72.9781H44.0125V80.5016Z" fill="white"/>
<path d="M43.7869 80.5016V75.5361C43.7869 74.1233 44.9321 72.9781 46.3449 72.9781H48.7524C50.1651 72.9781 51.3104 74.1233 51.3104 75.5361V80.5016H43.7869Z" fill="white"/>
<path d="M73.2036 80.5016H65.6801V75.5361C65.6801 74.1233 66.8254 72.9781 68.2381 72.9781H73.2036V80.5016Z" fill="white"/>
<path d="M80.5015 72.978H72.978V80.5015H80.5015V72.978Z" fill="white"/>
<path d="M87.7994 72.978H80.2759V80.5015H87.7994V72.978Z" fill="white"/>
<path d="M116.991 72.978H109.467V80.5015H116.991V72.978Z" fill="white"/>
<path d="M124.288 72.978H116.765V80.5015H124.288V72.978Z" fill="white"/>
<path d="M124.063 80.5016V72.9781H129.028C130.441 72.9781 131.586 74.1233 131.586 75.5361V80.5016H124.063Z" fill="white"/>
<path d="M153.479 80.5016H148.514C147.101 80.5016 145.956 79.3563 145.956 77.9436V75.5361C145.956 74.1233 147.101 72.9781 148.514 72.9781H153.479V80.5016Z" fill="white"/>
<path d="M160.777 72.978H153.254V80.5015H160.777V72.978Z" fill="white"/>
<path d="M160.552 80.5016V72.9781H165.517C166.93 72.9781 168.075 74.1233 168.075 75.5361V80.5016H160.552Z" fill="white"/>
<path d="M189.743 75.1298V78.3573C189.743 79.5461 190.706 80.5015 191.895 80.5015H195.122C196.318 80.5015 197.274 79.5385 197.274 78.3498V75.1298C197.266 73.9335 196.303 72.978 195.115 72.978H191.895C190.706 72.978 189.743 73.941 189.743 75.1298Z" fill="white"/>
<path d="M7.52351 80.2759H0V87.7994H7.52351V80.2759Z" fill="white"/>
<path d="M21.8933 87.7994V82.8339C21.8933 81.4212 23.0386 80.2759 24.4513 80.2759H26.8588C28.2716 80.2759 29.4168 81.4212 29.4168 82.8339V87.7994H21.8933Z" fill="white"/>
<path d="M44.0125 80.2759V85.2414C44.0125 86.6541 42.8672 87.7994 41.4545 87.7994H39.0469C37.6342 87.7994 36.4889 86.6541 36.4889 85.2414V80.2759H44.0125Z" fill="white"/>
<path d="M49.0156 87.6488V87.7993H51.3103V85.5046H51.1598C51.1598 86.6934 50.1968 87.6488 49.0156 87.6488Z" fill="white"/>
<path d="M51.0847 87.7994V82.8339C51.0847 81.4212 52.23 80.2759 53.6427 80.2759H56.0502C57.463 80.2759 58.6082 81.4212 58.6082 82.8339V87.7994H51.0847Z" fill="white"/>
<path d="M73.2036 80.2759V85.2414C73.2036 86.6541 72.0584 87.7994 70.6456 87.7994H68.2381C66.8254 87.7994 65.6801 86.6541 65.6801 85.2414V80.2759H73.2036Z" fill="white"/>
<path d="M87.7994 80.2759H80.2759V87.7994H87.7994V80.2759Z" fill="white"/>
<path d="M87.5737 87.7994V80.2759H92.5392C93.952 80.2759 95.0972 81.4212 95.0972 82.8339V87.7994H87.5737Z" fill="white"/>
<path d="M116.991 80.2759H109.467V87.7994H116.991V80.2759Z" fill="white"/>
<path d="M131.586 80.2759V85.2414C131.586 86.6541 130.441 87.7994 129.028 87.7994H126.621C125.208 87.7994 124.063 86.6541 124.063 85.2414V80.2759H131.586Z" fill="white"/>
<path d="M160.777 80.2759H153.254V87.7994H160.777V80.2759Z" fill="white"/>
<path d="M168.075 80.2759H160.552V87.7994H168.075V80.2759Z" fill="white"/>
<path d="M167.85 87.7994V80.2759H172.815C174.228 80.2759 175.373 81.4212 175.373 82.8339V87.7994H167.85Z" fill="white"/>
<path d="M182.445 87.7994V82.8339C182.445 81.4212 183.59 80.2759 185.003 80.2759H187.411C188.823 80.2759 189.969 81.4212 189.969 82.8339V87.7994H182.445Z" fill="white"/>
<path d="M194.972 87.6488V87.7993H197.266V85.5046H197.116C197.116 86.6934 196.153 87.6488 194.972 87.6488Z" fill="white"/>
<path d="M197.041 87.7994V82.8339C197.041 81.4212 198.186 80.2759 199.599 80.2759H202.006C203.419 80.2759 204.564 81.4212 204.564 82.8339V87.7994H197.041Z" fill="white"/>
<path d="M7.52351 87.5737H0V95.0972H7.52351V87.5737Z" fill="white"/>
<path d="M7.29785 95.0973L7.29785 87.5738H12.2634C13.6761 87.5738 14.8214 88.719 14.8214 90.1318V95.0973H7.29785Z" fill="white"/>
<path d="M29.4168 87.5737H21.8933V95.0972H29.4168V87.5737Z" fill="white"/>
<path d="M29.1912 95.0973V87.5738H34.1567C35.5694 87.5738 36.7147 88.719 36.7147 90.1318V95.0973H29.1912Z" fill="white"/>
<path d="M51.3103 95.0973H46.3448C44.932 95.0973 43.7868 93.952 43.7868 92.5393V90.1318C43.7868 88.719 44.932 87.5738 46.3448 87.5738H51.3103V95.0973Z" fill="white"/>
<path d="M51.0847 87.5737H58.6082V92.5392C58.6082 93.952 57.463 95.0972 56.0502 95.0972H51.0847V87.5737Z" fill="white"/>
<path d="M80.5015 95.0973H75.5359C74.1232 95.0973 72.978 93.952 72.978 92.5393V90.1318C72.978 88.719 74.1232 87.5738 75.5359 87.5738H80.5015V95.0973Z" fill="white"/>
<path d="M87.7994 87.5737H80.2759V95.0972H87.7994V87.5737Z" fill="white"/>
<path d="M95.0972 87.5737H87.5737V95.0972H95.0972V87.5737Z" fill="white"/>
<path d="M94.8716 95.0973V90.1318C94.8716 88.719 96.0168 87.5738 97.4296 87.5738H99.8371C101.25 87.5738 102.395 88.719 102.395 90.1318V95.0973H94.8716Z" fill="white"/>
<path d="M107.398 94.9467V95.0972H109.693V92.8025H109.542C109.542 93.9912 108.579 94.9467 107.398 94.9467Z" fill="white"/>
<path d="M116.991 87.5737H109.467V95.0972H116.991V87.5737Z" fill="white"/>
<path d="M116.765 95.0973V90.1318C116.765 88.719 117.91 87.5738 119.323 87.5738H121.73C123.143 87.5738 124.288 88.719 124.288 90.1318V95.0973H116.765Z" fill="white"/>
<path d="M129.292 94.9467V95.0972H131.586V92.8025H131.436C131.436 93.9912 130.473 94.9467 129.292 94.9467Z" fill="white"/>
<path d="M138.884 95.0973H131.361V90.1318C131.361 88.719 132.506 87.5738 133.919 87.5738H138.884V95.0973Z" fill="white"/>
<path d="M138.658 95.0973V87.5738H143.624C145.036 87.5738 146.182 88.719 146.182 90.1318V95.0973H138.658Z" fill="white"/>
<path d="M151.185 94.9467V95.0972H153.48V92.8025H153.329C153.329 93.9912 152.366 94.9467 151.185 94.9467Z" fill="white"/>
<path d="M160.777 87.5737H153.254V95.0972H160.777V87.5737Z" fill="white"/>
<path d="M175.373 87.5737V92.5392C175.373 93.952 174.228 95.0972 172.815 95.0972H170.408C168.995 95.0972 167.85 93.952 167.85 92.5392V87.5737H175.373Z" fill="white"/>
<path d="M180.376 94.9467V95.0972H182.671V92.8025H182.52C182.52 93.9912 181.557 94.9467 180.376 94.9467Z" fill="white"/>
<path d="M189.969 87.5737H182.445V95.0972H189.969V87.5737Z" fill="white"/>
<path d="M197.266 87.5737H189.743V95.0972H197.266V87.5737Z" fill="white"/>
<path d="M204.564 87.5737H197.041V95.0972H204.564V87.5737Z" fill="white"/>
<path d="M204.339 95.0973V87.5738H209.304C210.717 87.5738 211.862 88.719 211.862 90.1318V95.0973H204.339Z" fill="white"/>
<path d="M7.52344 94.8715L7.52344 102.395H2.55792C1.14518 102.395 -7.31051e-05 101.25 -7.31051e-05 99.837V94.8715H7.52344Z" fill="white"/>
<path d="M7.29785 94.8715H14.8214V99.837C14.8214 101.25 13.6761 102.395 12.2634 102.395H7.29785V94.8715Z" fill="white"/>
<path d="M29.4167 94.8715V102.395H24.4512C23.0385 102.395 21.8932 101.25 21.8932 99.837V94.8715H29.4167Z" fill="white"/>
<path d="M36.7147 94.8715H29.1912V102.395H36.7147V94.8715Z" fill="white"/>
<path d="M63.6113 102.245V102.395H65.906V100.1H65.7555C65.7555 101.289 64.7925 102.245 63.6113 102.245Z" fill="white"/>
<path d="M65.6802 102.395V97.4295C65.6802 96.0168 66.8254 94.8715 68.2382 94.8715H70.6457C72.0584 94.8715 73.2037 96.0168 73.2037 97.4295V102.395H65.6802Z" fill="white"/>
<path d="M95.0972 94.8715V99.837C95.0972 101.25 93.9519 102.395 92.5392 102.395H90.1317C88.7189 102.395 87.5737 101.25 87.5737 99.837V94.8715H95.0972Z" fill="white"/>
<path d="M109.693 102.395H104.727C103.314 102.395 102.169 101.25 102.169 99.837V97.4295C102.169 96.0168 103.314 94.8715 104.727 94.8715H109.693V102.395Z" fill="white"/>
<path d="M109.467 94.8715H116.991V99.837C116.991 101.25 115.845 102.395 114.433 102.395H109.467V94.8715Z" fill="white"/>
<path d="M131.586 102.395H124.063V97.4295C124.063 96.0168 125.208 94.8715 126.621 94.8715H131.586V102.395Z" fill="white"/>
<path d="M138.884 94.8715H131.361V102.395H138.884V94.8715Z" fill="white"/>
<path d="M146.182 94.8715H138.658V102.395H146.182V94.8715Z" fill="white"/>
<path d="M153.48 94.8715H145.956V102.395H153.48V94.8715Z" fill="white"/>
<path d="M160.777 94.8715H153.254V102.395H160.777V94.8715Z" fill="white"/>
<path d="M160.552 102.395V97.4295C160.552 96.0168 161.697 94.8715 163.11 94.8715H165.517C166.93 94.8715 168.075 96.0168 168.075 97.4295V102.395H160.552Z" fill="white"/>
<path d="M182.671 102.395H177.705C176.293 102.395 175.147 101.25 175.147 99.837V97.4295C175.147 96.0168 176.293 94.8715 177.705 94.8715H182.671V102.395Z" fill="white"/>
<path d="M182.445 94.8715H189.969V99.837C189.969 101.25 188.823 102.395 187.411 102.395H182.445V94.8715Z" fill="white"/>
<path d="M211.862 94.8715V99.837C211.862 101.25 210.717 102.395 209.304 102.395H206.897C205.484 102.395 204.339 101.25 204.339 99.837V94.8715H211.862Z" fill="white"/>
<path d="M36.7146 102.169V107.135C36.7146 108.548 35.5693 109.693 34.1566 109.693H31.7491C30.3363 109.693 29.1911 108.548 29.1911 107.135V102.169H36.7146Z" fill="white"/>
<path d="M51.3103 109.693H46.3448C44.932 109.693 43.7868 108.548 43.7868 107.135V104.727C43.7868 103.315 44.932 102.169 46.3448 102.169H51.3103V109.693Z" fill="white"/>
<path d="M58.6082 102.169H51.0847V109.693H58.6082V102.169Z" fill="white"/>
<path d="M65.9058 102.169H58.3823V109.693H65.9058V102.169Z" fill="white"/>
<path d="M73.2037 102.169H65.6802V109.693H73.2037V102.169Z" fill="white"/>
<path d="M80.5015 102.169H72.978V109.693H80.5015V102.169Z" fill="white"/>
<path d="M80.2759 109.693V104.727C80.2759 103.315 81.4211 102.169 82.8339 102.169H85.2414C86.6541 102.169 87.7994 103.315 87.7994 104.727V109.693H80.2759Z" fill="white"/>
<path d="M131.586 102.169V107.135C131.586 108.548 130.441 109.693 129.028 109.693H126.621C125.208 109.693 124.063 108.548 124.063 107.135V102.169H131.586Z" fill="white"/>
<path d="M153.479 102.169V107.135C153.479 108.548 152.334 109.693 150.921 109.693H148.514C147.101 109.693 145.956 108.548 145.956 107.135V102.169H153.479Z" fill="white"/>
<path d="M167.85 104.321V107.549C167.85 108.737 168.813 109.693 170.001 109.693H173.229C174.425 109.693 175.381 108.73 175.381 107.541V104.321C175.373 103.125 174.41 102.169 173.221 102.169H170.001C168.813 102.169 167.85 103.132 167.85 104.321Z" fill="white"/>
<path d="M0 116.991L0 112.025C0 110.612 1.14525 109.467 2.55799 109.467H4.96552C6.37826 109.467 7.52351 110.612 7.52351 112.025V116.991H0Z" fill="white"/>
<path d="M21.8933 111.619V114.846C21.8933 116.035 22.8563 116.991 24.045 116.991H27.2726C28.4689 116.991 29.4243 116.028 29.4243 114.839V111.619C29.4168 110.423 28.4538 109.467 27.2651 109.467H24.045C22.8563 109.467 21.8933 110.43 21.8933 111.619Z" fill="white"/>
<path d="M34.4202 116.84V116.991H36.7148V114.696H36.5644C36.5644 115.885 35.6014 116.84 34.4202 116.84Z" fill="white"/>
<path d="M36.489 116.991V112.025C36.489 110.612 37.6343 109.467 39.047 109.467H41.4545C42.8673 109.467 44.0125 110.612 44.0125 112.025V116.991H36.489Z" fill="white"/>
<path d="M49.0156 116.84V116.991H51.3103V114.696H51.1598C51.1598 115.885 50.1968 116.84 49.0156 116.84Z" fill="white"/>
<path d="M58.6082 109.467H51.0847V116.991H58.6082V109.467Z" fill="white"/>
<path d="M80.5015 109.467V114.433C80.5015 115.845 79.3562 116.991 77.9435 116.991H75.5359C74.1232 116.991 72.978 115.845 72.978 114.433V109.467H80.5015Z" fill="white"/>
<path d="M87.5737 111.619V114.846C87.5737 116.035 88.5367 116.991 89.7255 116.991H92.953C94.1493 116.991 95.1048 116.028 95.1048 114.839V111.619C95.0972 110.423 94.1342 109.467 92.9455 109.467H89.7255C88.5367 109.467 87.5737 110.43 87.5737 111.619Z" fill="white"/>
<path d="M109.693 116.991H102.169V112.025C102.169 110.612 103.314 109.467 104.727 109.467H109.693V116.991Z" fill="white"/>
<path d="M116.991 109.467H109.467V116.991H116.991V109.467Z" fill="white"/>
<path d="M116.765 116.991V112.025C116.765 110.612 117.91 109.467 119.323 109.467H121.73C123.143 109.467 124.288 110.612 124.288 112.025V116.991H116.765Z" fill="white"/>
<path d="M138.884 116.991H133.919C132.506 116.991 131.361 115.845 131.361 114.433V112.025C131.361 110.612 132.506 109.467 133.919 109.467H138.884V116.991Z" fill="white"/>
<path d="M138.658 116.991V112.025C138.658 110.612 139.803 109.467 141.216 109.467H143.624C145.036 109.467 146.182 110.612 146.182 112.025V116.991H138.658Z" fill="white"/>
<path d="M160.552 111.619V114.846C160.552 116.035 161.515 116.991 162.703 116.991H165.931C167.127 116.991 168.083 116.028 168.083 114.839V111.619C168.075 110.423 167.112 109.467 165.924 109.467H162.703C161.515 109.467 160.552 110.43 160.552 111.619Z" fill="white"/>
<path d="M182.671 116.991H175.147V112.025C175.147 110.612 176.293 109.467 177.705 109.467H182.671V116.991Z" fill="white"/>
<path d="M182.445 116.991V109.467H187.411C188.823 109.467 189.969 110.612 189.969 112.025V116.991H182.445Z" fill="white"/>
<path d="M204.564 116.991H199.599C198.186 116.991 197.041 115.845 197.041 114.433V112.025C197.041 110.612 198.186 109.467 199.599 109.467H204.564V116.991Z" fill="white"/>
<path d="M204.339 116.991V109.467H209.304C210.717 109.467 211.862 110.612 211.862 112.025V116.991H204.339Z" fill="white"/>
<path d="M7.52351 116.765H0V124.288H7.52351V116.765Z" fill="white"/>
<path d="M36.7146 124.288H31.7491C30.3363 124.288 29.1911 123.143 29.1911 121.73V119.323C29.1911 117.91 30.3363 116.765 31.7491 116.765H36.7146V124.288Z" fill="white"/>
<path d="M44.0125 116.765H36.489V124.288H44.0125V116.765Z" fill="white"/>
<path d="M51.3104 116.765H43.7869V124.288H51.3104V116.765Z" fill="white"/>
<path d="M58.6082 116.765H51.0847V124.288H58.6082V116.765Z" fill="white"/>
<path d="M65.9058 116.765H58.3823V124.288H65.9058V116.765Z" fill="white"/>
<path d="M65.6802 124.288V119.323C65.6802 117.91 66.8254 116.765 68.2382 116.765H70.6457C72.0584 116.765 73.2037 117.91 73.2037 119.323V124.288H65.6802Z" fill="white"/>
<path d="M78.2068 124.138V124.288H80.5015V121.994H80.351C80.351 123.182 79.388 124.138 78.2068 124.138Z" fill="white"/>
<path d="M80.2759 124.288V119.323C80.2759 117.91 81.4211 116.765 82.8339 116.765H85.2414C86.6541 116.765 87.7994 117.91 87.7994 119.323V124.288H80.2759Z" fill="white"/>
<path d="M109.693 116.765H102.169V124.288H109.693V116.765Z" fill="white"/>
<path d="M109.467 116.765H116.991V121.73C116.991 123.143 115.845 124.288 114.433 124.288H109.467V116.765Z" fill="white"/>
<path d="M124.063 124.288V119.323C124.063 117.91 125.208 116.765 126.621 116.765H129.028C130.441 116.765 131.586 117.91 131.586 119.323V124.288H124.063Z" fill="white"/>
<path d="M143.887 124.138V124.288H146.182V121.994H146.031C146.031 123.182 145.068 124.138 143.887 124.138Z" fill="white"/>
<path d="M145.956 124.288V119.323C145.956 117.91 147.101 116.765 148.514 116.765H150.922C152.334 116.765 153.48 117.91 153.48 119.323V124.288H145.956Z" fill="white"/>
<path d="M173.078 124.138V124.288H175.373V121.994H175.223C175.223 123.182 174.26 124.138 173.078 124.138Z" fill="white"/>
<path d="M182.671 116.765H175.147V124.288H182.671V116.765Z" fill="white"/>
<path d="M189.969 116.765H182.445V124.288H189.969V116.765Z" fill="white"/>
<path d="M189.743 124.288V119.323C189.743 117.91 190.888 116.765 192.301 116.765H194.708C196.121 116.765 197.266 117.91 197.266 119.323V124.288H189.743Z" fill="white"/>
<path d="M211.862 116.765H204.339V124.288H211.862V116.765Z" fill="white"/>
<path d="M7.52351 124.063H0V131.586H7.52351V124.063Z" fill="white"/>
<path d="M14.8214 124.063H7.29785V131.586H14.8214V124.063Z" fill="white"/>
<path d="M14.5957 131.586V126.621C14.5957 125.208 15.741 124.063 17.1537 124.063H19.5612C20.974 124.063 22.1192 125.208 22.1192 126.621V131.586H14.5957Z" fill="white"/>
<path d="M44.0125 124.063H36.489V131.586H44.0125V124.063Z" fill="white"/>
<path d="M65.9058 124.063V129.028C65.9058 130.441 64.7605 131.586 63.3478 131.586H60.9402C59.5275 131.586 58.3823 130.441 58.3823 129.028V124.063H65.9058Z" fill="white"/>
<path d="M80.5015 131.586H72.978V126.621C72.978 125.208 74.1232 124.063 75.5359 124.063H80.5015V131.586Z" fill="white"/>
<path d="M87.7994 124.063H80.2759V131.586H87.7994V124.063Z" fill="white"/>
<path d="M87.5737 131.586V124.063H92.5392C93.952 124.063 95.0972 125.208 95.0972 126.621V131.586H87.5737Z" fill="white"/>
<path d="M109.693 124.063V129.028C109.693 130.441 108.547 131.586 107.135 131.586H104.727C103.314 131.586 102.169 130.441 102.169 129.028V124.063H109.693Z" fill="white"/>
<path d="M131.586 124.063V131.586H126.621C125.208 131.586 124.063 130.441 124.063 129.028V124.063H131.586Z" fill="white"/>
<path d="M138.884 124.063H131.361V131.586H138.884V124.063Z" fill="white"/>
<path d="M146.182 124.063H138.658V131.586H146.182V124.063Z" fill="white"/>
<path d="M153.48 124.063H145.956V131.586H153.48V124.063Z" fill="white"/>
<path d="M153.254 131.586V126.621C153.254 125.208 154.399 124.063 155.812 124.063H158.219C159.632 124.063 160.777 125.208 160.777 126.621V131.586H153.254Z" fill="white"/>
<path d="M165.781 131.436V131.586H168.075V129.292H167.925C167.925 130.48 166.962 131.436 165.781 131.436Z" fill="white"/>
<path d="M175.373 131.586H167.85V126.621C167.85 125.208 168.995 124.063 170.408 124.063H175.373V131.586Z" fill="white"/>
<path d="M182.671 124.063H175.147V131.586H182.671V124.063Z" fill="white"/>
<path d="M189.969 124.063H182.445V131.586H189.969V124.063Z" fill="white"/>
<path d="M204.564 131.586H199.599C198.186 131.586 197.041 130.441 197.041 129.028V126.621C197.041 125.208 198.186 124.063 199.599 124.063H204.564V131.586Z" fill="white"/>
<path d="M204.339 124.063H211.862V129.028C211.862 130.441 210.717 131.586 209.304 131.586H204.339V124.063Z" fill="white"/>
<path d="M7.52351 131.36H0V138.884H7.52351V131.36Z" fill="white"/>
<path d="M36.7146 138.884H31.7491C30.3363 138.884 29.1911 137.739 29.1911 136.326V133.919C29.1911 132.506 30.3363 131.361 31.7491 131.361H36.7146V138.884Z" fill="white"/>
<path d="M44.0125 131.36H36.489V138.884H44.0125V131.36Z" fill="white"/>
<path d="M51.3104 131.36H43.7869V138.884H51.3104V131.36Z" fill="white"/>
<path d="M51.0847 138.884V131.361H56.0502C57.463 131.361 58.6082 132.506 58.6082 133.919V138.884H51.0847Z" fill="white"/>
<path d="M80.5015 131.36H72.978V138.884H80.5015V131.36Z" fill="white"/>
<path d="M87.7994 131.36H80.2759V138.884H87.7994V131.36Z" fill="white"/>
<path d="M95.0972 131.36H87.5737V138.884H95.0972V131.36Z" fill="white"/>
<path d="M94.8716 138.884V131.361H99.8371C101.25 131.361 102.395 132.506 102.395 133.919V138.884H94.8716Z" fill="white"/>
<path d="M114.696 138.734V138.884H116.99V136.589H116.84C116.84 137.778 115.877 138.734 114.696 138.734Z" fill="white"/>
<path d="M116.765 138.884V133.919C116.765 132.506 117.91 131.361 119.323 131.361H121.73C123.143 131.361 124.288 132.506 124.288 133.919V138.884H116.765Z" fill="white"/>
<path d="M138.884 131.36V136.326C138.884 137.739 137.739 138.884 136.326 138.884H133.919C132.506 138.884 131.361 137.739 131.361 136.326V131.36H138.884Z" fill="white"/>
<path d="M153.479 131.36V136.326C153.479 137.739 152.334 138.884 150.921 138.884H148.514C147.101 138.884 145.956 137.739 145.956 136.326V131.36H153.479Z" fill="white"/>
<path d="M168.075 138.884H160.552V133.919C160.552 132.506 161.697 131.361 163.11 131.361H168.075V138.884Z" fill="white"/>
<path d="M167.85 131.36H175.373V136.326C175.373 137.739 174.228 138.884 172.815 138.884H167.85V131.36Z" fill="white"/>
<path d="M189.969 131.36V136.326C189.969 137.739 188.823 138.884 187.411 138.884H185.003C183.59 138.884 182.445 137.739 182.445 136.326V131.36H189.969Z" fill="white"/>
<path d="M7.52351 138.658H0V146.182H7.52351V138.658Z" fill="white"/>
<path d="M58.6082 138.658V146.182H53.6426C52.2299 146.182 51.0846 145.037 51.0846 143.624V138.658H58.6082Z" fill="white"/>
<path d="M58.3823 146.182V141.216C58.3823 139.804 59.5276 138.658 60.9403 138.658H63.3478C64.7606 138.658 65.9058 139.804 65.9058 141.216V146.182H58.3823Z" fill="white"/>
<path d="M80.5015 138.658V143.624C80.5015 145.037 79.3562 146.182 77.9435 146.182H75.5359C74.1232 146.182 72.978 145.037 72.978 143.624V138.658H80.5015Z" fill="white"/>
<path d="M102.395 138.658V143.624C102.395 145.037 101.25 146.182 99.837 146.182H97.4295C96.0168 146.182 94.8715 145.037 94.8715 143.624V138.658H102.395Z" fill="white"/>
<path d="M107.398 146.031V146.182H109.693V143.887H109.542C109.542 145.076 108.579 146.031 107.398 146.031Z" fill="white"/>
<path d="M116.99 146.182H109.467V141.216C109.467 139.804 110.612 138.658 112.025 138.658H116.99V146.182Z" fill="white"/>
<path d="M124.288 138.658H116.765V146.182H124.288V138.658Z" fill="white"/>
<path d="M124.063 146.182V141.216C124.063 139.804 125.208 138.658 126.621 138.658H129.028C130.441 138.658 131.586 139.804 131.586 141.216V146.182H124.063Z" fill="white"/>
<path d="M158.483 146.031V146.182H160.777V143.887H160.627C160.627 145.076 159.664 146.031 158.483 146.031Z" fill="white"/>
<path d="M168.075 138.658H160.552V146.182H168.075V138.658Z" fill="white"/>
<path d="M173.078 146.031V146.182H175.373V143.887H175.223C175.223 145.076 174.26 146.031 173.078 146.031Z" fill="white"/>
<path d="M175.147 146.182V141.216C175.147 139.804 176.293 138.658 177.705 138.658H180.113C181.526 138.658 182.671 139.804 182.671 141.216V146.182H175.147Z" fill="white"/>
<path d="M204.564 146.182H199.599C198.186 146.182 197.041 145.037 197.041 143.624V141.216C197.041 139.804 198.186 138.658 199.599 138.658H204.564V146.182Z" fill="white"/>
<path d="M204.339 146.182V141.216C204.339 139.804 205.484 138.658 206.897 138.658H209.304C210.717 138.658 211.862 139.804 211.862 141.216V146.182H204.339Z" fill="white"/>
<path d="M7.52344 145.956V150.922C7.52344 152.334 6.37818 153.48 4.96544 153.48H2.55792C1.14518 153.48 -7.31051e-05 152.334 -7.31051e-05 150.922V145.956H7.52344Z" fill="white"/>
<path d="M22.1191 153.48H17.1536C15.7409 153.48 14.5956 152.334 14.5956 150.922V148.514C14.5956 147.101 15.7409 145.956 17.1536 145.956H22.1191V153.48Z" fill="white"/>
<path d="M29.4168 145.956H21.8933V153.48H29.4168V145.956Z" fill="white"/>
<path d="M36.7147 145.956H29.1912V153.48H36.7147V145.956Z" fill="white"/>
<path d="M44.0125 145.956H36.489V153.48H44.0125V145.956Z" fill="white"/>
<path d="M43.7869 153.48V148.514C43.7869 147.101 44.9321 145.956 46.3449 145.956H48.7524C50.1651 145.956 51.3104 147.101 51.3104 148.514V153.48H43.7869Z" fill="white"/>
<path d="M65.6802 148.108V151.335C65.6802 152.524 66.6432 153.48 67.8319 153.48H71.0595C72.2557 153.48 73.2112 152.517 73.2112 151.328V148.108C73.2037 146.912 72.2407 145.956 71.052 145.956H67.8319C66.6432 145.956 65.6802 146.919 65.6802 148.108Z" fill="white"/>
<path d="M80.2759 148.108V151.335C80.2759 152.524 81.2389 153.48 82.4276 153.48H85.6552C86.8514 153.48 87.8069 152.517 87.8069 151.328V148.108C87.7994 146.912 86.8364 145.956 85.6477 145.956H82.4276C81.2389 145.956 80.2759 146.919 80.2759 148.108Z" fill="white"/>
<path d="M100.1 153.329V153.48H102.395V151.185H102.245C102.245 152.374 101.282 153.329 100.1 153.329Z" fill="white"/>
<path d="M109.693 153.48H102.169V148.514C102.169 147.101 103.314 145.956 104.727 145.956H109.693V153.48Z" fill="white"/>
<path d="M109.467 145.956H116.991V150.922C116.991 152.334 115.845 153.48 114.433 153.48H109.467V145.956Z" fill="white"/>
<path d="M138.884 153.48H133.919C132.506 153.48 131.361 152.334 131.361 150.922V148.514C131.361 147.101 132.506 145.956 133.919 145.956H138.884V153.48Z" fill="white"/>
<path d="M146.182 145.956H138.658V153.48H146.182V145.956Z" fill="white"/>
<path d="M153.48 145.956H145.956V153.48H153.48V145.956Z" fill="white"/>
<path d="M160.777 145.956H153.254V153.48H160.777V145.956Z" fill="white"/>
<path d="M168.075 145.956H160.552V153.48H168.075V145.956Z" fill="white"/>
<path d="M175.373 145.956H167.85V153.48H175.373V145.956Z" fill="white"/>
<path d="M182.671 145.956H175.147V153.48H182.671V145.956Z" fill="white"/>
<path d="M189.743 148.108V151.335C189.743 152.524 190.706 153.48 191.895 153.48H195.122C196.318 153.48 197.274 152.517 197.274 151.328V148.108C197.266 146.912 196.303 145.956 195.115 145.956H191.895C190.706 145.956 189.743 146.919 189.743 148.108Z" fill="white"/>
<path d="M58.3823 155.406V158.633C58.3823 159.822 59.3453 160.777 60.534 160.777H63.7616C64.9579 160.777 65.9134 159.814 65.9134 158.626V155.406C65.9058 154.209 64.9428 153.254 63.7541 153.254H60.534C59.3453 153.254 58.3823 154.217 58.3823 155.406Z" fill="white"/>
<path d="M72.978 155.406V158.633C72.978 159.822 73.941 160.777 75.1298 160.777H78.3573C79.5536 160.777 80.5091 159.814 80.5091 158.626V155.406C80.5015 154.209 79.5385 153.254 78.3498 153.254H75.1298C73.941 153.254 72.978 154.217 72.978 155.406Z" fill="white"/>
<path d="M95.0972 160.777H90.1317C88.7189 160.777 87.5737 159.632 87.5737 158.219V155.812C87.5737 154.399 88.7189 153.254 90.1317 153.254H95.0972V160.777Z" fill="white"/>
<path d="M102.395 153.254H94.8716V160.777H102.395V153.254Z" fill="white"/>
<path d="M102.169 153.254H109.693V158.219C109.693 159.632 108.547 160.777 107.135 160.777H102.169V153.254Z" fill="white"/>
<path d="M153.48 153.254H145.956V160.777H153.48V153.254Z" fill="white"/>
<path d="M182.671 153.254H175.147V160.777H182.671V153.254Z" fill="white"/>
<path d="M182.445 160.777V155.812C182.445 154.399 183.59 153.254 185.003 153.254H187.411C188.823 153.254 189.969 154.399 189.969 155.812V160.777H182.445Z" fill="white"/>
<path d="M204.564 160.777H197.041V155.812C197.041 154.399 198.186 153.254 199.599 153.254H204.564V160.777Z" fill="white"/>
<path d="M204.339 160.777V155.812C204.339 154.399 205.484 153.254 206.897 153.254H209.304C210.717 153.254 211.862 154.399 211.862 155.812V160.777H204.339Z" fill="white"/>
<path d="M78.2068 167.925V168.075H80.5015V165.781H80.351C80.351 166.969 79.388 167.925 78.2068 167.925Z" fill="white"/>
<path d="M80.2759 168.075V163.11C80.2759 161.697 81.4211 160.552 82.8339 160.552H85.2414C86.6541 160.552 87.7994 161.697 87.7994 163.11V168.075H80.2759Z" fill="white"/>
<path d="M92.8025 167.925V168.075H95.0972V165.781H94.9467C94.9467 166.969 93.9837 167.925 92.8025 167.925Z" fill="white"/>
<path d="M102.395 160.552H94.8716V168.075H102.395V160.552Z" fill="white"/>
<path d="M131.586 168.075H124.063V163.11C124.063 161.697 125.208 160.552 126.621 160.552H131.586V168.075Z" fill="white"/>
<path d="M138.884 160.552H131.361V168.075H138.884V160.552Z" fill="white"/>
<path d="M146.182 160.552H138.658V168.075H146.182V160.552Z" fill="white"/>
<path d="M153.48 160.552H145.956V168.075H153.48V160.552Z" fill="white"/>
<path d="M160.552 162.703V165.931C160.552 167.12 161.515 168.075 162.703 168.075H165.931C167.127 168.075 168.083 167.112 168.083 165.924V162.703C168.075 161.507 167.112 160.552 165.924 160.552H162.703C161.515 160.552 160.552 161.515 160.552 162.703Z" fill="white"/>
<path d="M182.671 160.552H175.147V168.075H182.671V160.552Z" fill="white"/>
<path d="M204.564 160.552V165.517C204.564 166.93 203.419 168.075 202.006 168.075H199.599C198.186 168.075 197.041 166.93 197.041 165.517V160.552H204.564Z" fill="white"/>
<path d="M80.5015 175.373H72.978V170.408C72.978 168.995 74.1232 167.85 75.5359 167.85H80.5015V175.373Z" fill="white"/>
<path d="M87.7994 167.849H80.2759V175.373H87.7994V167.849Z" fill="white"/>
<path d="M95.0972 167.849H87.5737V175.373H95.0972V167.849Z" fill="white"/>
<path d="M94.8716 167.849H102.395V172.815C102.395 174.228 101.25 175.373 99.8371 175.373H94.8716V167.849Z" fill="white"/>
<path d="M121.994 175.223V175.373H124.288V173.078H124.138C124.138 174.267 123.175 175.223 121.994 175.223Z" fill="white"/>
<path d="M131.586 167.849H124.063V175.373H131.586V167.849Z" fill="white"/>
<path d="M138.884 167.849H131.361V175.373H138.884V167.849Z" fill="white"/>
<path d="M146.182 167.849H138.658V175.373H146.182V167.849Z" fill="white"/>
<path d="M153.48 167.849H145.956V175.373H153.48V167.849Z" fill="white"/>
<path d="M173.078 175.223V175.373H175.373V173.078H175.223C175.223 174.267 174.26 175.223 173.078 175.223Z" fill="white"/>
<path d="M182.671 167.849H175.147V175.373H182.671V167.849Z" fill="white"/>
<path d="M182.445 175.373V167.85H187.411C188.823 167.85 189.969 168.995 189.969 170.408V175.373H182.445Z" fill="white"/>
<path d="M202.27 175.223V175.373H204.564V173.078H204.414C204.414 174.267 203.451 175.223 202.27 175.223Z" fill="white"/>
<path d="M204.339 175.373V170.408C204.339 168.995 205.484 167.85 206.897 167.85H209.304C210.717 167.85 211.862 168.995 211.862 170.408V175.373H204.339Z" fill="white"/>
<path d="M58.3823 182.671V177.705C58.3823 176.293 59.5276 175.147 60.9403 175.147H63.3478C64.7606 175.147 65.9058 176.293 65.9058 177.705V182.671H58.3823Z" fill="white"/>
<path d="M80.5015 175.147H72.978V182.671H80.5015V175.147Z" fill="white"/>
<path d="M95.0972 175.147V180.113C95.0972 181.526 93.9519 182.671 92.5392 182.671H90.1317C88.7189 182.671 87.5737 181.526 87.5737 180.113V175.147H95.0972Z" fill="white"/>
<path d="M116.99 182.671H112.025C110.612 182.671 109.467 181.526 109.467 180.113V177.705C109.467 176.293 110.612 175.147 112.025 175.147H116.99V182.671Z" fill="white"/>
<path d="M124.288 175.147H116.765V182.671H124.288V175.147Z" fill="white"/>
<path d="M131.586 175.147H124.063V182.671H131.586V175.147Z" fill="white"/>
<path d="M131.361 175.147H138.884V180.113C138.884 181.526 137.739 182.671 136.326 182.671H131.361V175.147Z" fill="white"/>
<path d="M153.48 175.147H145.956V182.671H153.48V175.147Z" fill="white"/>
<path d="M160.777 175.147H153.254V182.671H160.777V175.147Z" fill="white"/>
<path d="M168.075 175.147H160.552V182.671H168.075V175.147Z" fill="white"/>
<path d="M175.373 175.147H167.85V182.671H175.373V175.147Z" fill="white"/>
<path d="M182.671 175.147H175.147V182.671H182.671V175.147Z" fill="white"/>
<path d="M189.969 175.147H182.445V182.671H189.969V175.147Z" fill="white"/>
<path d="M197.266 175.147H189.743V182.671H197.266V175.147Z" fill="white"/>
<path d="M204.564 175.147H197.041V182.671H204.564V175.147Z" fill="white"/>
<path d="M204.339 175.147H211.862V180.113C211.862 181.526 210.717 182.671 209.304 182.671H204.339V175.147Z" fill="white"/>
<path d="M65.9058 182.445H58.3823V189.969H65.9058V182.445Z" fill="white"/>
<path d="M80.5015 182.445V189.969H75.5359C74.1232 189.969 72.978 188.823 72.978 187.411V182.445H80.5015Z" fill="white"/>
<path d="M80.2759 189.969V185.003C80.2759 183.59 81.4211 182.445 82.8339 182.445H85.2414C86.6541 182.445 87.7994 183.59 87.7994 185.003V189.969H80.2759Z" fill="white"/>
<path d="M124.288 182.445V189.969H119.323C117.91 189.969 116.765 188.823 116.765 187.411V182.445H124.288Z" fill="white"/>
<path d="M131.586 182.445H124.063V189.969H131.586V182.445Z" fill="white"/>
<path d="M146.182 189.969H138.658V185.003C138.658 183.59 139.803 182.445 141.216 182.445H146.182V189.969Z" fill="white"/>
<path d="M153.48 182.445H145.956V189.969H153.48V182.445Z" fill="white"/>
<path d="M160.777 182.445H153.254V189.969H160.777V182.445Z" fill="white"/>
<path d="M175.373 182.445H167.85V189.969H175.373V182.445Z" fill="white"/>
<path d="M189.969 182.445H182.445V189.969H189.969V182.445Z" fill="white"/>
<path d="M197.266 182.445H189.743V189.969H197.266V182.445Z" fill="white"/>
<path d="M65.9058 189.743V194.708C65.9058 196.121 64.7605 197.266 63.3478 197.266H60.9402C59.5275 197.266 58.3823 196.121 58.3823 194.708V189.743H65.9058Z" fill="white"/>
<path d="M87.5737 197.266V192.301C87.5737 190.888 88.719 189.743 90.1317 189.743H92.5392C93.952 189.743 95.0972 190.888 95.0972 192.301V197.266H87.5737Z" fill="white"/>
<path d="M109.693 197.266H104.727C103.314 197.266 102.169 196.121 102.169 194.708V192.301C102.169 190.888 103.314 189.743 104.727 189.743H109.693V197.266Z" fill="white"/>
<path d="M109.467 197.266V192.301C109.467 190.888 110.612 189.743 112.025 189.743H114.433C115.845 189.743 116.991 190.888 116.991 192.301V197.266H109.467Z" fill="white"/>
<path d="M131.586 189.743H124.063V197.266H131.586V189.743Z" fill="white"/>
<path d="M146.182 189.743V197.266H141.216C139.803 197.266 138.658 196.121 138.658 194.708V189.743H146.182Z" fill="white"/>
<path d="M153.48 189.743H145.956V197.266H153.48V189.743Z" fill="white"/>
<path d="M160.777 189.743H153.254V197.266H160.777V189.743Z" fill="white"/>
<path d="M168.075 189.743H160.552V197.266H168.075V189.743Z" fill="white"/>
<path d="M175.373 189.743H167.85V197.266H175.373V189.743Z" fill="white"/>
<path d="M182.671 189.743H175.147V197.266H182.671V189.743Z" fill="white"/>
<path d="M189.969 189.743H182.445V197.266H189.969V189.743Z" fill="white"/>
<path d="M197.266 189.743H189.743V197.266H197.266V189.743Z" fill="white"/>
<path d="M197.041 197.266V189.743H202.006C203.419 189.743 204.564 190.888 204.564 192.301V197.266H197.041Z" fill="white"/>
<path d="M72.978 199.192V202.42C72.978 203.609 73.941 204.564 75.1298 204.564H78.3573C79.5536 204.564 80.5091 203.601 80.5091 202.413V199.192C80.5015 197.996 79.5385 197.041 78.3498 197.041H75.1298C73.941 197.041 72.978 198.004 72.978 199.192Z" fill="white"/>
<path d="M85.5046 204.414V204.564H87.7993V202.27H87.6488C87.6488 203.458 86.6858 204.414 85.5046 204.414Z" fill="white"/>
<path d="M95.0972 197.041H87.5737V204.564H95.0972V197.041Z" fill="white"/>
<path d="M94.8716 204.564V197.041H99.8371C101.25 197.041 102.395 198.186 102.395 199.599V204.564H94.8716Z" fill="white"/>
<path d="M124.288 204.564H119.323C117.91 204.564 116.765 203.419 116.765 202.006V199.599C116.765 198.186 117.91 197.041 119.323 197.041H124.288V204.564Z" fill="white"/>
<path d="M124.063 197.041H131.586V202.006C131.586 203.419 130.441 204.564 129.028 204.564H124.063V197.041Z" fill="white"/>
<path d="M153.479 197.041V204.564H148.514C147.101 204.564 145.956 203.419 145.956 202.006V197.041H153.479Z" fill="white"/>
<path d="M153.254 197.041H160.777V202.006C160.777 203.419 159.632 204.564 158.219 204.564H153.254V197.041Z" fill="white"/>
<path d="M182.671 197.041H175.147V204.564H182.671V197.041Z" fill="white"/>
<path d="M204.564 197.041V202.006C204.564 203.419 203.419 204.564 202.006 204.564H199.599C198.186 204.564 197.041 203.419 197.041 202.006V197.041H204.564Z" fill="white"/>
<path d="M87.7993 211.862H82.8338C81.4211 211.862 80.2758 210.717 80.2758 209.304V206.897C80.2758 205.484 81.4211 204.339 82.8338 204.339H87.7993V211.862Z" fill="white"/>
<path d="M95.0972 204.339H87.5737V211.862H95.0972V204.339Z" fill="white"/>
<path d="M102.395 204.339H94.8716V211.862H102.395V204.339Z" fill="white"/>
<path d="M109.693 204.339H102.169V211.862H109.693V204.339Z" fill="white"/>
<path d="M109.467 211.862V206.897C109.467 205.484 110.612 204.339 112.025 204.339H114.433C115.845 204.339 116.991 205.484 116.991 206.897V211.862H109.467Z" fill="white"/>
<path d="M138.658 206.49V209.718C138.658 210.907 139.621 211.862 140.81 211.862H144.038C145.234 211.862 146.189 210.899 146.189 209.71V206.49C146.182 205.294 145.219 204.339 144.03 204.339H140.81C139.621 204.339 138.658 205.302 138.658 206.49Z" fill="white"/>
<path d="M160.552 206.49V209.718C160.552 210.907 161.515 211.862 162.703 211.862H165.931C167.127 211.862 168.083 210.899 168.083 209.71V206.49C168.075 205.294 167.112 204.339 165.924 204.339H162.703C161.515 204.339 160.552 205.302 160.552 206.49Z" fill="white"/>
<path d="M182.671 204.339V211.862H177.705C176.293 211.862 175.147 210.717 175.147 209.304V204.339H182.671Z" fill="white"/>
<path d="M189.969 204.339H182.445V211.862H189.969V204.339Z" fill="white"/>
<path d="M189.743 211.862V206.897C189.743 205.484 190.888 204.339 192.301 204.339H194.708C196.121 204.339 197.266 205.484 197.266 206.897V211.862H189.743Z" fill="white"/>
<path d="M45.1412 34.4072V18.2564C45.1412 11.0876 44.166 9.33839 43.7466 8.91802C43.3262 8.49859 41.577 7.52338 34.4072 7.52338H18.2574C11.0876 7.52338 9.33839 8.49859 8.91896 8.91802C8.49953 9.33839 7.52338 11.0876 7.52338 18.2564V34.4072C7.52338 41.577 8.49953 43.3262 8.91896 43.7466C9.33839 44.165 11.0876 45.1412 18.2574 45.1412H34.4072C41.577 45.1412 43.3262 44.165 43.7466 43.7466C44.166 43.3262 45.1412 41.577 45.1412 34.4072ZM34.4072 0C49.154 0 52.6646 3.5106 52.6646 18.2564C52.6646 33.0032 52.6646 19.6614 52.6646 34.4072C52.6646 49.154 49.154 52.6646 34.4072 52.6646C19.6614 52.6646 33.0032 52.6646 18.2574 52.6646C3.5106 52.6646 0 49.154 0 34.4072C0 19.6614 0 26.4917 0 18.2564C0 3.5106 3.5106 0 18.2574 0C33.0032 0 19.6614 0 34.4072 0ZM29.7929 15.047C36.1132 15.047 37.6176 16.5524 37.6176 22.8708C37.6176 29.1911 37.6176 23.4735 37.6176 29.7929C37.6176 36.1122 36.1132 37.6176 29.7929 37.6176C23.4735 37.6176 29.1911 37.6176 22.8717 37.6176C16.5523 37.6176 15.047 36.1122 15.047 29.7929C15.047 23.4735 15.047 26.4005 15.047 22.8708C15.047 16.5524 16.5523 15.047 22.8717 15.047C29.1911 15.047 23.4735 15.047 29.7929 15.047Z" fill="white"/>
<path d="M204.038 34.4072V18.2564C204.038 11.0876 203.062 9.33839 202.643 8.91802C202.223 8.49859 200.473 7.52338 193.304 7.52338H177.154C169.984 7.52338 168.235 8.49859 167.815 8.91802C167.396 9.33839 166.42 11.0876 166.42 18.2564V34.4072C166.42 41.577 167.396 43.3262 167.815 43.7466C168.235 44.165 169.984 45.1412 177.154 45.1412H193.304C200.473 45.1412 202.223 44.165 202.643 43.7466C203.062 43.3262 204.038 41.577 204.038 34.4072ZM193.304 0C208.05 0 211.561 3.5106 211.561 18.2564C211.561 33.0032 211.561 19.6614 211.561 34.4072C211.561 49.154 208.05 52.6646 193.304 52.6646C178.558 52.6646 191.9 52.6646 177.154 52.6646C162.407 52.6646 158.896 49.154 158.896 34.4072C158.896 19.6614 158.896 26.4917 158.896 18.2564C158.896 3.5106 162.407 0 177.154 0C191.9 0 178.558 0 193.304 0ZM188.689 15.047C195.01 15.047 196.514 16.5524 196.514 22.8708C196.514 29.1911 196.514 23.4735 196.514 29.7929C196.514 36.1122 195.01 37.6176 188.689 37.6176C182.37 37.6176 188.088 37.6176 181.768 37.6176C175.449 37.6176 173.944 36.1122 173.944 29.7929C173.944 23.4735 173.944 26.4005 173.944 22.8708C173.944 16.5524 175.449 15.047 181.768 15.047C188.088 15.047 182.37 15.047 188.689 15.047Z" fill="white"/>
<path d="M45.1412 193.304V177.153C45.1412 169.984 44.166 168.235 43.7466 167.815C43.3262 167.395 41.577 166.42 34.4072 166.42H18.2574C11.0876 166.42 9.33839 167.395 8.91896 167.815C8.49953 168.235 7.52338 169.984 7.52338 177.153V193.304C7.52338 200.473 8.49953 202.223 8.91896 202.643C9.33839 203.062 11.0876 204.038 18.2574 204.038H34.4072C41.577 204.038 43.3262 203.062 43.7466 202.643C44.166 202.223 45.1412 200.473 45.1412 193.304ZM34.4072 158.896C49.154 158.896 52.6646 162.407 52.6646 177.153C52.6646 191.9 52.6646 178.558 52.6646 193.304C52.6646 208.05 49.154 211.561 34.4072 211.561C19.6614 211.561 33.0032 211.561 18.2574 211.561C3.5106 211.561 0 208.05 0 193.304C0 178.558 0 185.388 0 177.153C0 162.407 3.5106 158.896 18.2574 158.896C33.0032 158.896 19.6614 158.896 34.4072 158.896ZM29.7929 173.944C36.1132 173.944 37.6176 175.449 37.6176 181.767C37.6176 188.088 37.6176 182.37 37.6176 188.689C37.6176 195.009 36.1132 196.514 29.7929 196.514C23.4735 196.514 29.1911 196.514 22.8717 196.514C16.5523 196.514 15.047 195.009 15.047 188.689C15.047 182.37 15.047 185.297 15.047 181.767C15.047 175.449 16.5523 173.944 22.8717 173.944C29.1911 173.944 23.4735 173.944 29.7929 173.944Z" fill="white"/>
</svg>
